<svg width="2000" height="1400" xmlns="http://www.w3.org/2000/svg" style="background-color: #ECECEC; shape-rendering: crispEdges;">
<defs>
  <pattern id="wallHatch" width="12" height="12" patternUnits="userSpaceOnUse" patternTransform="rotate(45)">
    <rect width="12" height="12" fill="#2F2F2F"/>
    <rect y="6" width="12" height="6" fill="#3C3C3C"/>
  </pattern>
  <pattern id="windowStripe" width="6" height="6" patternUnits="userSpaceOnUse">
    <rect width="6" height="6" fill="#FFFFFF"/>
    <rect x="0" y="2" width="6" height="2" fill="#CFCFCF"/>
  </pattern>
  <linearGradient id="doorGradient" x1="0%" y1="0%" x2="100%" y2="100%">
    <stop offset="0%" style="stop-color:#D7CCC8;stop-opacity:1" />
    <stop offset="50%" style="stop-color:#BCAAA4;stop-opacity:1" />
    <stop offset="100%" style="stop-color:#A1887F;stop-opacity:1" />
  </linearGradient>
</defs>
<rect width="100%" height="100%" fill="#ECECEC"/>
<rect x="640" y="560" width="480" height="800" fill="#FFFFFF" stroke="none" stroke-width="0"/>
<line x1="640" y1="560" x2="640" y2="610" stroke="url(#wallHatch)" stroke-width="30" stroke-linecap="square" stroke-linejoin="miter"/>
<line x1="640" y1="610" x2="640" y2="660" stroke="url(#wallHatch)" stroke-width="30" stroke-linecap="square" stroke-linejoin="miter"/>
<line x1="640" y1="660" x2="640" y2="710" stroke="url(#wallHatch)" stroke-width="30" stroke-linecap="square" stroke-linejoin="miter"/>
<line x1="640" y1="710" x2="640" y2="760" stroke="url(#wallHatch)" stroke-width="30" stroke-linecap="square" stroke-linejoin="miter"/>
<line x1="640" y1="760" x2="640" y2="810" stroke="url(#wallHatch)" stroke-width="30" stroke-linecap="square" stroke-linejoin="miter"/>
<line x1="640" y1="810" x2="640" y2="860" stroke="url(#wallHatch)" stroke-width="30" stroke-linecap="square" stroke-linejoin="miter"/>
<line x1="640" y1="860" x2="640" y2="910" stroke="url(#wallHatch)" stroke-width="30" stroke-linecap="square" stroke-linejoin="miter"/>
<line x1="640" y1="910" x2="640" y2="960" stroke="url(#wallHatch)" stroke-width="30" stroke-linecap="square" stroke-linejoin="miter"/>
<line x1="640" y1="960" x2="640" y2="1010" stroke="url(#wallHatch)" stroke-width="30" stroke-linecap="square" stroke-linejoin="miter"/>
<line x1="640" y1="1010" x2="640" y2="1060" stroke="url(#wallHatch)" stroke-width="30" stroke-linecap="square" stroke-linejoin="miter"/>
<line x1="640" y1="1060" x2="640" y2="1110" stroke="url(#wallHatch)" stroke-width="30" stroke-linecap="square" stroke-linejoin="miter"/>
<line x1="640" y1="1110" x2="640" y2="1160" stroke="url(#wallHatch)" stroke-width="30" stroke-linecap="square" stroke-linejoin="miter"/>
<line x1="640" y1="1160" x2="640" y2="1210" stroke="url(#wallHatch)" stroke-width="30" stroke-linecap="square" stroke-linejoin="miter"/>
<line x1="640" y1="1210" x2="640" y2="1260" stroke="url(#wallHatch)" stroke-width="30" stroke-linecap="square" stroke-linejoin="miter"/>
<line x1="640" y1="1260" x2="640" y2="1310" stroke="url(#wallHatch)" stroke-width="30" stroke-linecap="square" stroke-linejoin="miter"/>
<line x1="640" y1="1310" x2="640" y2="1360" stroke="url(#wallHatch)" stroke-width="30" stroke-linecap="square" stroke-linejoin="miter"/>
<line x1="1120" y1="560" x2="1120" y2="610" stroke="url(#wallHatch)" stroke-width="30" stroke-linecap="square" stroke-linejoin="miter"/>
<line x1="1120" y1="610" x2="1120" y2="660" stroke="url(#wallHatch)" stroke-width="30" stroke-linecap="square" stroke-linejoin="miter"/>
<line x1="1120" y1="660" x2="1120" y2="710" stroke="url(#wallHatch)" stroke-width="30" stroke-linecap="square" stroke-linejoin="miter"/>
<line x1="1120" y1="710" x2="1120" y2="760" stroke="url(#wallHatch)" stroke-width="30" stroke-linecap="square" stroke-linejoin="miter"/>
<line x1="1120" y1="760" x2="1120" y2="810" stroke="url(#wallHatch)" stroke-width="30" stroke-linecap="square" stroke-linejoin="miter"/>
<line x1="1120" y1="810" x2="1120" y2="860" stroke="url(#wallHatch)" stroke-width="30" stroke-linecap="square" stroke-linejoin="miter"/>
<line x1="1120" y1="860" x2="1120" y2="910" stroke="url(#wallHatch)" stroke-width="30" stroke-linecap="square" stroke-linejoin="miter"/>
<line x1="1120" y1="910" x2="1120" y2="960" stroke="url(#wallHatch)" stroke-width="30" stroke-linecap="square" stroke-linejoin="miter"/>
<line x1="1120" y1="960" x2="1120" y2="1010" stroke="url(#wallHatch)" stroke-width="30" stroke-linecap="square" stroke-linejoin="miter"/>
<line x1="1120" y1="1010" x2="1120" y2="1060" stroke="url(#wallHatch)" stroke-width="30" stroke-linecap="square" stroke-linejoin="miter"/>
<line x1="1120" y1="1060" x2="1120" y2="1110" stroke="url(#wallHatch)" stroke-width="30" stroke-linecap="square" stroke-linejoin="miter"/>
<line x1="1120" y1="1110" x2="1120" y2="1160" stroke="url(#wallHatch)" stroke-width="30" stroke-linecap="square" stroke-linejoin="miter"/>
<line x1="1120" y1="1160" x2="1120" y2="1210" stroke="url(#wallHatch)" stroke-width="30" stroke-linecap="square" stroke-linejoin="miter"/>
<line x1="1120" y1="1210" x2="1120" y2="1260" stroke="url(#wallHatch)" stroke-width="30" stroke-linecap="square" stroke-linejoin="miter"/>
<line x1="1120" y1="1260" x2="1120" y2="1310" stroke="url(#wallHatch)" stroke-width="30" stroke-linecap="square" stroke-linejoin="miter"/>
<line x1="1120" y1="1310" x2="1120" y2="1360" stroke="url(#wallHatch)" stroke-width="30" stroke-linecap="square" stroke-linejoin="miter"/>
<line x1="640" y1="560" x2="688" y2="560" stroke="url(#wallHatch)" stroke-width="30" stroke-linecap="square" stroke-linejoin="miter"/>
<line x1="688" y1="560" x2="736" y2="560" stroke="url(#wallHatch)" stroke-width="30" stroke-linecap="square" stroke-linejoin="miter"/>
<line x1="736" y1="560" x2="784" y2="560" stroke="url(#wallHatch)" stroke-width="30" stroke-linecap="square" stroke-linejoin="miter"/>
<line x1="784" y1="560" x2="832" y2="560" stroke="url(#wallHatch)" stroke-width="30" stroke-linecap="square" stroke-linejoin="miter"/>
<line x1="832" y1="560" x2="880" y2="560" stroke="url(#wallHatch)" stroke-width="30" stroke-linecap="square" stroke-linejoin="miter"/>
<line x1="880" y1="560" x2="928" y2="560" stroke="url(#wallHatch)" stroke-width="30" stroke-linecap="square" stroke-linejoin="miter"/>
<line x1="928" y1="560" x2="976" y2="560" stroke="url(#wallHatch)" stroke-width="30" stroke-linecap="square" stroke-linejoin="miter"/>
<line x1="976" y1="560" x2="1024" y2="560" stroke="url(#wallHatch)" stroke-width="30" stroke-linecap="square" stroke-linejoin="miter"/>
<line x1="1024" y1="560" x2="1072" y2="560" stroke="url(#wallHatch)" stroke-width="30" stroke-linecap="square" stroke-linejoin="miter"/>
<line x1="1072" y1="560" x2="1120" y2="560" stroke="url(#wallHatch)" stroke-width="30" stroke-linecap="square" stroke-linejoin="miter"/>
<line x1="640" y1="1360" x2="688" y2="1360" stroke="url(#wallHatch)" stroke-width="30" stroke-linecap="square" stroke-linejoin="miter"/>
<line x1="688" y1="1360" x2="736" y2="1360" stroke="url(#wallHatch)" stroke-width="30" stroke-linecap="square" stroke-linejoin="miter"/>
<line x1="736" y1="1360" x2="784" y2="1360" stroke="url(#wallHatch)" stroke-width="30" stroke-linecap="square" stroke-linejoin="miter"/>
<line x1="784" y1="1360" x2="832" y2="1360" stroke="url(#wallHatch)" stroke-width="30" stroke-linecap="square" stroke-linejoin="miter"/>
<line x1="832" y1="1360" x2="880" y2="1360" stroke="url(#wallHatch)" stroke-width="30" stroke-linecap="square" stroke-linejoin="miter"/>
<line x1="880" y1="1360" x2="928" y2="1360" stroke="url(#wallHatch)" stroke-width="30" stroke-linecap="square" stroke-linejoin="miter"/>
<line x1="928" y1="1360" x2="976" y2="1360" stroke="url(#wallHatch)" stroke-width="30" stroke-linecap="square" stroke-linejoin="miter"/>
<line x1="976" y1="1360" x2="1024" y2="1360" stroke="url(#wallHatch)" stroke-width="30" stroke-linecap="square" stroke-linejoin="miter"/>
<line x1="1024" y1="1360" x2="1072" y2="1360" stroke="url(#wallHatch)" stroke-width="30" stroke-linecap="square" stroke-linejoin="miter"/>
<line x1="1072" y1="1360" x2="1120" y2="1360" stroke="url(#wallHatch)" stroke-width="30" stroke-linecap="square" stroke-linejoin="miter"/>
<line x1="661.0703125" y1="560" x2="1037.7109375" y2="560" stroke="#FFFFFF" stroke-width="32" stroke-linecap="square"/><g>
                <line x1="661.0703125" y1="560" x2="1037.7109375" y2="560" 
                      stroke="#2F2F2F" stroke-width="7.5" stroke-linecap="square"/>
                <line x1="661.0703125" y1="590" x2="1037.7109375" y2="590" 
                      stroke="#2F2F2F" stroke-width="7.5" stroke-linecap="square"/>
            
                <line x1="661.0703125" y1="569" x2="1037.7109375" y2="569" 
                      stroke="#2F2F2F" stroke-width="4" stroke-linecap="square"/>
                <line x1="661.0703125" y1="581" x2="1037.7109375" y2="581" 
                      stroke="#2F2F2F" stroke-width="4" stroke-linecap="square"/>
            
                    <line x1="755.23046875" y1="569" x2="755.23046875" y2="581" 
                          stroke="#2F2F2F" stroke-width="3" stroke-linecap="square"/>
                
                    <line x1="849.390625" y1="569" x2="849.390625" y2="581" 
                          stroke="#2F2F2F" stroke-width="3" stroke-linecap="square"/>
                
                    <line x1="943.55078125" y1="569" x2="943.55078125" y2="581" 
                          stroke="#2F2F2F" stroke-width="3" stroke-linecap="square"/>
                </g>
<rect x="678.4" y="992" width="115.19999999999999" height="96" fill="#F5F6F9" stroke="#2F2F2F" stroke-width="4" stroke-linecap="round" stroke-linejoin="round"/>
<rect x="686.0799999999999" y="999.68" width="99.83999999999999" height="14.5152" fill="#F5F6F9" stroke="#2F2F2F" stroke-width="4"/>
<rect x="686.0799999999999" y="1015.6952" width="46.919999999999995" height="62.28479999999999" fill="#F5F6F9" stroke="#2F2F2F" stroke-width="4"/>
<rect x="738.9999999999999" y="1015.6952" width="46.919999999999995" height="62.28479999999999" fill="#F5F6F9" stroke="#2F2F2F" stroke-width="4"/>
<rect x="660" y="1168" width="57.599999999999994" height="64" rx="8.639999999999999" ry="8.639999999999999" fill="#F5F6F9" stroke="#2F2F2F" stroke-width="4" stroke-linecap="round" stroke-linejoin="round"/>
<rect x="851.2" y="840" width="57.599999999999994" height="240" fill="#F5F6F9" stroke="#2F2F2F" stroke-width="4" stroke-linecap="round" stroke-linejoin="round"/>
<line x1="880" y1="840" x2="880" y2="1080" stroke="#2F2F2F" stroke-width="2" stroke-linecap="round"/>
<circle cx="868.48" cy="960" r="4" fill="none" stroke="#2F2F2F" stroke-width="2"/>
<circle cx="891.52" cy="960" r="4" fill="none" stroke="#2F2F2F" stroke-width="2"/>
<rect x="908.8" y="912" width="38.4" height="96" fill="#F5F6F9" stroke="#2F2F2F" stroke-width="4" stroke-linecap="round" stroke-linejoin="round"/>
<circle cx="928" cy="960" r="9.6" fill="none" stroke="#2F2F2F" stroke-width="2"/>
<text x="880" y="950.4" text-anchor="middle" font-family="Inter, Arial, sans-serif" font-size="48" font-weight="700" fill="#1D1D1D" stroke="#FFFFFF" stroke-width="3" paint-order="stroke">Прихожая</text>
<text x="880" y="996" text-anchor="middle" font-family="Inter, Arial, sans-serif" font-size="34" fill="#2F2F2F" stroke="#FFFFFF" stroke-width="2" paint-order="stroke">9.0 м²</text></svg>