<svg width="2000" height="1400" xmlns="http://www.w3.org/2000/svg" style="background-color: #ECECEC; shape-rendering: crispEdges;">
<defs>
  <pattern id="wallHatch" width="12" height="12" patternUnits="userSpaceOnUse" patternTransform="rotate(45)">
    <rect width="12" height="12" fill="#2F2F2F"/>
    <rect y="6" width="12" height="6" fill="#3C3C3C"/>
  </pattern>
  <pattern id="windowStripe" width="6" height="6" patternUnits="userSpaceOnUse">
    <rect width="6" height="6" fill="#FFFFFF"/>
    <rect x="0" y="2" width="6" height="2" fill="#CFCFCF"/>
  </pattern>
  <linearGradient id="doorGradient" x1="0%" y1="0%" x2="100%" y2="100%">
    <stop offset="0%" style="stop-color:#D7CCC8;stop-opacity:1" />
    <stop offset="50%" style="stop-color:#BCAAA4;stop-opacity:1" />
    <stop offset="100%" style="stop-color:#A1887F;stop-opacity:1" />
  </linearGradient>
</defs>
<rect width="100%" height="100%" fill="#ECECEC"/>
<rect x="560" y="760" width="520" height="560" fill="#FFFFFF" stroke="none" stroke-width="0"/>
<rect x="560" y="160" width="1080" height="600" fill="#FFFFFF" stroke="none" stroke-width="0"/>
<rect x="720" y="140" width="760" height="40" fill="#FFFFFF" stroke="none"/>
<rect x="1122.0078125" y="740" width="437.828125" height="40" fill="#FFFFFF" stroke="none"/>
<rect x="540" y="320" width="40" height="280" fill="#FFFFFF" stroke="none"/>
<line x1="720" y1="160" x2="1480" y2="160" stroke="#FFFFFF" stroke-width="42" stroke-linecap="butt"/><g>
                <line x1="720" y1="141" x2="1480" y2="141" 
                      stroke="#2F2F2F" stroke-width="2.6666666666666665" stroke-linecap="square"/>
                <line x1="720" y1="179" x2="1480" y2="179" 
                      stroke="#2F2F2F" stroke-width="2.6666666666666665" stroke-linecap="square"/>
            
                <line x1="720" y1="150" x2="1480" y2="150" 
                      stroke="#2F2F2F" stroke-width="2.6666666666666665" stroke-linecap="square"/>
                <line x1="720" y1="170" x2="1480" y2="170" 
                      stroke="#2F2F2F" stroke-width="2.6666666666666665" stroke-linecap="square"/>
            
                    <line x1="973.3333333333334" y1="150" x2="973.3333333333334" y2="170" 
                          stroke="#2F2F2F" stroke-width="2.6666666666666665" stroke-linecap="square"/>
                
                    <line x1="1226.6666666666667" y1="150" x2="1226.6666666666667" y2="170" 
                          stroke="#2F2F2F" stroke-width="2.6666666666666665" stroke-linecap="square"/>
                </g>
<line x1="1122.0078125" y1="760" x2="1559.8359375" y2="760" stroke="#FFFFFF" stroke-width="42" stroke-linecap="butt"/><g>
                <line x1="1122.0078125" y1="741" x2="1559.8359375" y2="741" 
                      stroke="#2F2F2F" stroke-width="2.6666666666666665" stroke-linecap="square"/>
                <line x1="1122.0078125" y1="779" x2="1559.8359375" y2="779" 
                      stroke="#2F2F2F" stroke-width="2.6666666666666665" stroke-linecap="square"/>
            
                <line x1="1122.0078125" y1="750" x2="1559.8359375" y2="750" 
                      stroke="#2F2F2F" stroke-width="2.6666666666666665" stroke-linecap="square"/>
                <line x1="1122.0078125" y1="770" x2="1559.8359375" y2="770" 
                      stroke="#2F2F2F" stroke-width="2.6666666666666665" stroke-linecap="square"/>
            
                    <line x1="1267.9505208333333" y1="750" x2="1267.9505208333333" y2="770" 
                          stroke="#2F2F2F" stroke-width="2.6666666666666665" stroke-linecap="square"/>
                
                    <line x1="1413.8932291666667" y1="750" x2="1413.8932291666667" y2="770" 
                          stroke="#2F2F2F" stroke-width="2.6666666666666665" stroke-linecap="square"/>
                </g>
<line x1="560" y1="320" x2="560" y2="600" stroke="#FFFFFF" stroke-width="42" stroke-linecap="butt"/><g>
                <line x1="520" y1="321" x2="520" y2="599" 
                      stroke="#2F2F2F" stroke-width="2.6666666666666665" stroke-linecap="square"/>
                <line x1="560" y1="321" x2="560" y2="599" 
                      stroke="#2F2F2F" stroke-width="2.6666666666666665" stroke-linecap="square"/>
            
                <line x1="530" y1="321" x2="530" y2="599" 
                      stroke="#2F2F2F" stroke-width="2.6666666666666665" stroke-linecap="square"/>
                <line x1="550" y1="321" x2="550" y2="599" 
                      stroke="#2F2F2F" stroke-width="2.6666666666666665" stroke-linecap="square"/>
            
                    <line x1="530" y1="413.3333333333333" x2="550" y2="413.3333333333333" 
                          stroke="#2F2F2F" stroke-width="2.6666666666666665" stroke-linecap="square"/>
                
                    <line x1="530" y1="506.66666666666663" x2="550" y2="506.66666666666663" 
                          stroke="#2F2F2F" stroke-width="2.6666666666666665" stroke-linecap="square"/>
                </g>
            <g transform="translate(715.9453125, 1320) rotate(0)">
                <!-- Основная линия двери (толстая) -->
                <line x1="0" y1="0" x2="128" y2="0" 
                      stroke="#2c3e50" stroke-width="6" stroke-linecap="round"/>
                
                <!-- Красивые петли (схематичные) -->
                <rect x="-3" y="-4" width="6" height="8" fill="#2c3e50" stroke="none" rx="1"/>
                <rect x="125" y="-4" width="6" height="8" fill="#2c3e50" stroke="none" rx="1"/>
                
                <!-- Дуга открытия двери (внутрь) -->
                <path d="M 0 0 A 128 128 0 0 1 89.6 89.6" 
                      stroke="#2c3e50" stroke-width="4" fill="none" stroke-linecap="round"/>
                
                <!-- Соединительная линия от конца дуги -->
                <line x1="89.6" y1="89.6" 
                      x2="128" y2="0" 
                      stroke="#2c3e50" stroke-width="4" stroke-linecap="round"/>
                
                <!-- Ручка двери (красивая) -->
                <circle cx="116" cy="0" r="3" 
                        fill="#f39c12" stroke="#e67e22" stroke-width="1"/>
                <circle cx="116" cy="0" r="1.5" 
                        fill="#fff" opacity="0.8"/>
            </g>
        
            <g transform="translate(672.1640625, 760) rotate(0)">
                <!-- Основная линия двери (толстая) -->
                <line x1="0" y1="0" x2="128" y2="0" 
                      stroke="#34495e" stroke-width="6" stroke-linecap="round"/>
                
                <!-- Красивые петли (схематичные) -->
                <rect x="-3" y="-4" width="6" height="8" fill="#34495e" stroke="none" rx="1"/>
                <rect x="125" y="-4" width="6" height="8" fill="#34495e" stroke="none" rx="1"/>
                
                <!-- Дуга открытия двери (внутрь) -->
                <path d="M 0 0 A 128 128 0 0 1 89.6 89.6" 
                      stroke="#2F2F2F" stroke-width="4" fill="none" stroke-linecap="round"/>
                
                <!-- Соединительная линия от конца дуги -->
                <line x1="89.6" y1="89.6" 
                      x2="128" y2="0" 
                      stroke="#2F2F2F" stroke-width="4" stroke-linecap="round"/>
                
                <!-- Ручка двери (красивая) -->
                <circle cx="116" cy="0" r="3" 
                        fill="#f39c12" stroke="#e67e22" stroke-width="1"/>
                <circle cx="116" cy="0" r="1.5" 
                        fill="#fff" opacity="0.8"/>
            </g>
        
<line x1="560" y1="760" x2="560" y2="806.6666666666666" stroke="url(#wallHatch)" stroke-width="40" stroke-linecap="square" stroke-linejoin="miter"/>
<line x1="560" y1="806.6666666666666" x2="560" y2="853.3333333333334" stroke="url(#wallHatch)" stroke-width="40" stroke-linecap="square" stroke-linejoin="miter"/>
<line x1="560" y1="853.3333333333334" x2="560" y2="900" stroke="url(#wallHatch)" stroke-width="40" stroke-linecap="square" stroke-linejoin="miter"/>
<line x1="560" y1="900" x2="560" y2="946.6666666666666" stroke="url(#wallHatch)" stroke-width="40" stroke-linecap="square" stroke-linejoin="miter"/>
<line x1="560" y1="946.6666666666666" x2="560" y2="993.3333333333334" stroke="url(#wallHatch)" stroke-width="40" stroke-linecap="square" stroke-linejoin="miter"/>
<line x1="560" y1="993.3333333333334" x2="560" y2="1040" stroke="url(#wallHatch)" stroke-width="40" stroke-linecap="square" stroke-linejoin="miter"/>
<line x1="560" y1="1040" x2="560" y2="1086.6666666666667" stroke="url(#wallHatch)" stroke-width="40" stroke-linecap="square" stroke-linejoin="miter"/>
<line x1="560" y1="1086.6666666666667" x2="560" y2="1133.3333333333333" stroke="url(#wallHatch)" stroke-width="40" stroke-linecap="square" stroke-linejoin="miter"/>
<line x1="560" y1="1133.3333333333333" x2="560" y2="1180" stroke="url(#wallHatch)" stroke-width="40" stroke-linecap="square" stroke-linejoin="miter"/>
<line x1="560" y1="1180" x2="560" y2="1226.6666666666667" stroke="url(#wallHatch)" stroke-width="40" stroke-linecap="square" stroke-linejoin="miter"/>
<line x1="560" y1="1226.6666666666667" x2="560" y2="1273.3333333333335" stroke="url(#wallHatch)" stroke-width="40" stroke-linecap="square" stroke-linejoin="miter"/>
<line x1="560" y1="1273.3333333333335" x2="560" y2="1320" stroke="url(#wallHatch)" stroke-width="40" stroke-linecap="square" stroke-linejoin="miter"/>
<line x1="1080" y1="760" x2="1080" y2="806.6666666666666" stroke="url(#wallHatch)" stroke-width="40" stroke-linecap="square" stroke-linejoin="miter"/>
<line x1="1080" y1="806.6666666666666" x2="1080" y2="853.3333333333334" stroke="url(#wallHatch)" stroke-width="40" stroke-linecap="square" stroke-linejoin="miter"/>
<line x1="1080" y1="853.3333333333334" x2="1080" y2="900" stroke="url(#wallHatch)" stroke-width="40" stroke-linecap="square" stroke-linejoin="miter"/>
<line x1="1080" y1="900" x2="1080" y2="946.6666666666666" stroke="url(#wallHatch)" stroke-width="40" stroke-linecap="square" stroke-linejoin="miter"/>
<line x1="1080" y1="946.6666666666666" x2="1080" y2="993.3333333333334" stroke="url(#wallHatch)" stroke-width="40" stroke-linecap="square" stroke-linejoin="miter"/>
<line x1="1080" y1="993.3333333333334" x2="1080" y2="1040" stroke="url(#wallHatch)" stroke-width="40" stroke-linecap="square" stroke-linejoin="miter"/>
<line x1="1080" y1="1040" x2="1080" y2="1086.6666666666667" stroke="url(#wallHatch)" stroke-width="40" stroke-linecap="square" stroke-linejoin="miter"/>
<line x1="1080" y1="1086.6666666666667" x2="1080" y2="1133.3333333333333" stroke="url(#wallHatch)" stroke-width="40" stroke-linecap="square" stroke-linejoin="miter"/>
<line x1="1080" y1="1133.3333333333333" x2="1080" y2="1180" stroke="url(#wallHatch)" stroke-width="40" stroke-linecap="square" stroke-linejoin="miter"/>
<line x1="1080" y1="1180" x2="1080" y2="1226.6666666666667" stroke="url(#wallHatch)" stroke-width="40" stroke-linecap="square" stroke-linejoin="miter"/>
<line x1="1080" y1="1226.6666666666667" x2="1080" y2="1273.3333333333335" stroke="url(#wallHatch)" stroke-width="40" stroke-linecap="square" stroke-linejoin="miter"/>
<line x1="1080" y1="1273.3333333333335" x2="1080" y2="1320" stroke="url(#wallHatch)" stroke-width="40" stroke-linecap="square" stroke-linejoin="miter"/>
<line x1="560" y1="760" x2="609.0909090909091" y2="760" stroke="url(#wallHatch)" stroke-width="20" stroke-linecap="square" stroke-linejoin="miter"/>
<line x1="609.0909090909091" y1="760" x2="658.1818181818182" y2="760" stroke="url(#wallHatch)" stroke-width="20" stroke-linecap="square" stroke-linejoin="miter"/>
<line x1="854.5454545454545" y1="760" x2="903.6363636363636" y2="760" stroke="url(#wallHatch)" stroke-width="20" stroke-linecap="square" stroke-linejoin="miter"/>
<line x1="903.6363636363636" y1="760" x2="952.7272727272727" y2="760" stroke="url(#wallHatch)" stroke-width="20" stroke-linecap="square" stroke-linejoin="miter"/>
<line x1="952.7272727272727" y1="760" x2="1001.8181818181818" y2="760" stroke="url(#wallHatch)" stroke-width="20" stroke-linecap="square" stroke-linejoin="miter"/>
<line x1="1001.8181818181818" y1="760" x2="1050.909090909091" y2="760" stroke="url(#wallHatch)" stroke-width="20" stroke-linecap="square" stroke-linejoin="miter"/>
<line x1="1050.909090909091" y1="760" x2="1100" y2="760" stroke="url(#wallHatch)" stroke-width="20" stroke-linecap="square" stroke-linejoin="miter"/>
<line x1="1541.818181818182" y1="760" x2="1590.909090909091" y2="760" stroke="url(#wallHatch)" stroke-width="40" stroke-linecap="square" stroke-linejoin="miter"/>
<line x1="1590.909090909091" y1="760" x2="1640" y2="760" stroke="url(#wallHatch)" stroke-width="40" stroke-linecap="square" stroke-linejoin="miter"/>
<line x1="560" y1="1320" x2="607.2727272727273" y2="1320" stroke="url(#wallHatch)" stroke-width="40" stroke-linecap="square" stroke-linejoin="miter"/>
<line x1="607.2727272727273" y1="1320" x2="654.5454545454545" y2="1320" stroke="url(#wallHatch)" stroke-width="40" stroke-linecap="square" stroke-linejoin="miter"/>
<line x1="654.5454545454545" y1="1320" x2="701.8181818181818" y2="1320" stroke="url(#wallHatch)" stroke-width="40" stroke-linecap="square" stroke-linejoin="miter"/>
<line x1="890.909090909091" y1="1320" x2="938.1818181818182" y2="1320" stroke="url(#wallHatch)" stroke-width="40" stroke-linecap="square" stroke-linejoin="miter"/>
<line x1="938.1818181818182" y1="1320" x2="985.4545454545455" y2="1320" stroke="url(#wallHatch)" stroke-width="40" stroke-linecap="square" stroke-linejoin="miter"/>
<line x1="985.4545454545455" y1="1320" x2="1032.7272727272727" y2="1320" stroke="url(#wallHatch)" stroke-width="40" stroke-linecap="square" stroke-linejoin="miter"/>
<line x1="1032.7272727272727" y1="1320" x2="1080" y2="1320" stroke="url(#wallHatch)" stroke-width="40" stroke-linecap="square" stroke-linejoin="miter"/>
<line x1="560" y1="160" x2="560" y2="210" stroke="url(#wallHatch)" stroke-width="40" stroke-linecap="square" stroke-linejoin="miter"/>
<line x1="560" y1="210" x2="560" y2="260" stroke="url(#wallHatch)" stroke-width="40" stroke-linecap="square" stroke-linejoin="miter"/>
<line x1="560" y1="260" x2="560" y2="310" stroke="url(#wallHatch)" stroke-width="40" stroke-linecap="square" stroke-linejoin="miter"/>
<line x1="560" y1="610" x2="560" y2="660" stroke="url(#wallHatch)" stroke-width="40" stroke-linecap="square" stroke-linejoin="miter"/>
<line x1="560" y1="660" x2="560" y2="710" stroke="url(#wallHatch)" stroke-width="40" stroke-linecap="square" stroke-linejoin="miter"/>
<line x1="560" y1="710" x2="560" y2="760" stroke="url(#wallHatch)" stroke-width="40" stroke-linecap="square" stroke-linejoin="miter"/>
<line x1="1640" y1="160" x2="1640" y2="210" stroke="url(#wallHatch)" stroke-width="40" stroke-linecap="square" stroke-linejoin="miter"/>
<line x1="1640" y1="210" x2="1640" y2="260" stroke="url(#wallHatch)" stroke-width="40" stroke-linecap="square" stroke-linejoin="miter"/>
<line x1="1640" y1="260" x2="1640" y2="310" stroke="url(#wallHatch)" stroke-width="40" stroke-linecap="square" stroke-linejoin="miter"/>
<line x1="1640" y1="310" x2="1640" y2="360" stroke="url(#wallHatch)" stroke-width="40" stroke-linecap="square" stroke-linejoin="miter"/>
<line x1="1640" y1="360" x2="1640" y2="410" stroke="url(#wallHatch)" stroke-width="40" stroke-linecap="square" stroke-linejoin="miter"/>
<line x1="1640" y1="410" x2="1640" y2="460" stroke="url(#wallHatch)" stroke-width="40" stroke-linecap="square" stroke-linejoin="miter"/>
<line x1="1640" y1="460" x2="1640" y2="510" stroke="url(#wallHatch)" stroke-width="40" stroke-linecap="square" stroke-linejoin="miter"/>
<line x1="1640" y1="510" x2="1640" y2="560" stroke="url(#wallHatch)" stroke-width="40" stroke-linecap="square" stroke-linejoin="miter"/>
<line x1="1640" y1="560" x2="1640" y2="610" stroke="url(#wallHatch)" stroke-width="40" stroke-linecap="square" stroke-linejoin="miter"/>
<line x1="1640" y1="610" x2="1640" y2="660" stroke="url(#wallHatch)" stroke-width="40" stroke-linecap="square" stroke-linejoin="miter"/>
<line x1="1640" y1="660" x2="1640" y2="710" stroke="url(#wallHatch)" stroke-width="40" stroke-linecap="square" stroke-linejoin="miter"/>
<line x1="1640" y1="710" x2="1640" y2="760" stroke="url(#wallHatch)" stroke-width="40" stroke-linecap="square" stroke-linejoin="miter"/>
<line x1="560" y1="160" x2="609.0909090909091" y2="160" stroke="url(#wallHatch)" stroke-width="40" stroke-linecap="square" stroke-linejoin="miter"/>
<line x1="609.0909090909091" y1="160" x2="658.1818181818182" y2="160" stroke="url(#wallHatch)" stroke-width="40" stroke-linecap="square" stroke-linejoin="miter"/>
<line x1="658.1818181818182" y1="160" x2="707.2727272727273" y2="160" stroke="url(#wallHatch)" stroke-width="40" stroke-linecap="square" stroke-linejoin="miter"/>
<line x1="1492.7272727272727" y1="160" x2="1541.818181818182" y2="160" stroke="url(#wallHatch)" stroke-width="40" stroke-linecap="square" stroke-linejoin="miter"/>
<line x1="1541.818181818182" y1="160" x2="1590.909090909091" y2="160" stroke="url(#wallHatch)" stroke-width="40" stroke-linecap="square" stroke-linejoin="miter"/>
<line x1="1590.909090909091" y1="160" x2="1640" y2="160" stroke="url(#wallHatch)" stroke-width="40" stroke-linecap="square" stroke-linejoin="miter"/>
<rect x="773.2" y="956" width="93.6" height="168" fill="#F5F6F9" stroke="#2F2F2F" stroke-width="4" stroke-linecap="round" stroke-linejoin="round"/>
<line x1="820" y1="956" x2="820" y2="1124" stroke="#2F2F2F" stroke-width="2" stroke-linecap="round"/>
<circle cx="801.28" cy="1040" r="4" fill="none" stroke="#2F2F2F" stroke-width="2"/>
<circle cx="838.72" cy="1040" r="4" fill="none" stroke="#2F2F2F" stroke-width="2"/>
<rect x="840.8" y="1073.6" width="62.4" height="44.800000000000004" rx="6.720000000000001" ry="6.720000000000001" fill="#F5F6F9" stroke="#2F2F2F" stroke-width="4" stroke-linecap="round" stroke-linejoin="round"/>
<rect x="911.52" y="1026.56" width="24.96" height="26.880000000000003" rx="4.992000000000001" ry="4.992000000000001" fill="#F5F6F9" stroke="#2F2F2F" stroke-width="4" stroke-linecap="round" stroke-linejoin="round"/>
<rect x="911.52" y="1015.3599999999999" width="24.96" height="11.200000000000001" fill="#F5F6F9" stroke="#2F2F2F" stroke-width="4"/>
<rect x="653.6" y="1006.4" width="124.8" height="67.2" fill="#F5F6F9" stroke="#2F2F2F" stroke-width="4" stroke-linecap="round" stroke-linejoin="round"/>
<rect x="658.976" y="1011.776" width="114.048" height="10.160639999999999" fill="#F5F6F9" stroke="#2F2F2F" stroke-width="4"/>
<rect x="658.976" y="1023.4366399999999" width="54.024" height="43.59936" fill="#F5F6F9" stroke="#2F2F2F" stroke-width="4"/>
<rect x="719" y="1023.4366399999999" width="54.024" height="43.59936" fill="#F5F6F9" stroke="#2F2F2F" stroke-width="4"/>
<rect x="781" y="989.6" width="78" height="100.8" fill="#F5F6F9" stroke="#2F2F2F" stroke-width="4" stroke-linecap="round" stroke-linejoin="round"/>
<circle cx="820" cy="1040" r="19.5" fill="none" stroke="#2F2F2F" stroke-width="2"/>
<rect x="580" y="961.6" width="93.6" height="44.800000000000004" fill="#F5F6F9" stroke="#2F2F2F" stroke-width="4" stroke-linecap="round" stroke-linejoin="round"/>
<circle cx="603.4" cy="975.04" r="8.064" fill="none" stroke="#2F2F2F" stroke-width="2"/>
<circle cx="634.288" cy="975.04" r="8.064" fill="none" stroke="#2F2F2F" stroke-width="2"/>
<circle cx="603.4" cy="989.824" r="8.064" fill="none" stroke="#2F2F2F" stroke-width="2"/>
<circle cx="634.288" cy="989.824" r="8.064" fill="none" stroke="#2F2F2F" stroke-width="2"/>
<rect x="911" y="388" width="378" height="144" fill="#F5F6F9" stroke="#2F2F2F" stroke-width="4"/>
<rect x="922.52" y="399.52" width="169.92" height="18" fill="#F5F6F9" stroke="#2F2F2F" stroke-width="4"/>
<rect x="1107.56" y="399.52" width="169.92" height="18" fill="#F5F6F9" stroke="#2F2F2F" stroke-width="4"/>
<rect x="1359.2" y="268" width="129.6" height="144" fill="#F5F6F9" stroke="#2F2F2F" stroke-width="4" stroke-linecap="round" stroke-linejoin="round"/>
<line x1="1424" y1="268" x2="1424" y2="412" stroke="#2F2F2F" stroke-width="2" stroke-linecap="round"/>
<circle cx="1398.08" cy="340" r="4" fill="none" stroke="#2F2F2F" stroke-width="2"/>
<circle cx="1449.92" cy="340" r="4" fill="none" stroke="#2F2F2F" stroke-width="2"/>
<text x="820" y="1030.4" text-anchor="middle" font-family="Inter, Arial, sans-serif" font-size="48" font-weight="700" fill="#1D1D1D" stroke="#FFFFFF" stroke-width="3" paint-order="stroke">Прихожая</text>
<text x="820" y="1076" text-anchor="middle" font-family="Inter, Arial, sans-serif" font-size="34" fill="#2F2F2F" stroke="#FFFFFF" stroke-width="2" paint-order="stroke">10.0 м²</text>
<text x="1100" y="450.4" text-anchor="middle" font-family="Inter, Arial, sans-serif" font-size="48" font-weight="700" fill="#1D1D1D" stroke="#FFFFFF" stroke-width="3" paint-order="stroke">Комната 1</text>
<text x="1100" y="496" text-anchor="middle" font-family="Inter, Arial, sans-serif" font-size="34" fill="#2F2F2F" stroke="#FFFFFF" stroke-width="2" paint-order="stroke">12.0 м²</text></svg>