<svg width="2000" height="1400" xmlns="http://www.w3.org/2000/svg" style="background-color: #ECECEC; shape-rendering: crispEdges;">
<defs>
  <pattern id="wallHatch" width="12" height="12" patternUnits="userSpaceOnUse" patternTransform="rotate(45)">
    <rect width="12" height="12" fill="#2F2F2F"/>
    <rect y="6" width="12" height="6" fill="#3C3C3C"/>
  </pattern>
  <pattern id="windowStripe" width="6" height="6" patternUnits="userSpaceOnUse">
    <rect width="6" height="6" fill="#FFFFFF"/>
    <rect x="0" y="2" width="6" height="2" fill="#CFCFCF"/>
  </pattern>
  <linearGradient id="doorGradient" x1="0%" y1="0%" x2="100%" y2="100%">
    <stop offset="0%" style="stop-color:#D7CCC8;stop-opacity:1" />
    <stop offset="50%" style="stop-color:#BCAAA4;stop-opacity:1" />
    <stop offset="100%" style="stop-color:#A1887F;stop-opacity:1" />
  </linearGradient>
</defs>
<rect width="100%" height="100%" fill="#ECECEC"/>
<rect x="320" y="840" width="960" height="520" fill="#FFFFFF" stroke="none" stroke-width="0"/>
<rect x="320" y="240" width="1320" height="600" fill="#FFFFFF" stroke="none" stroke-width="0"/>
<rect x="480" y="220" width="1000" height="40" fill="#FFFFFF" stroke="none"/>
<rect x="1620" y="400" width="40" height="299.1751708984375" fill="#FFFFFF" stroke="none"/>
                    <g transform="translate(950.0872802734375, 832) rotate(0)">
                        <!-- Тень двери -->
                        <rect x="2" y="2" width="160" height="16" 
                              fill="#8D6E63" opacity="0.3" rx="2"/>
                        
                        <!-- Основная дверь -->
                        <rect x="0" y="0" width="160" height="16" 
                              fill="url(#doorGradient)" stroke="#5D4037" stroke-width="1" rx="2"/>
                        
                        <!-- Ручка двери -->
                        <circle cx="148" cy="8" r="3" 
                                fill="#FFD700" stroke="#B8860B" stroke-width="0.5"/>
                        
                        <!-- Панели двери -->
                        <rect x="8" y="2" width="144" height="2" fill="#8D6E63" opacity="0.6"/>
                        <rect x="8" y="12" width="144" height="2" fill="#8D6E63" opacity="0.6"/>
                        
                        <!-- Центральная панель -->
                        <rect x="72" y="4" width="16" height="8" 
                              fill="#8D6E63" opacity="0.4" rx="1"/>
                    </g>
                
                    <g transform="translate(1272, 1140.9656982421875) rotate(90)">
                        <!-- Тень двери -->
                        <rect x="2" y="2" width="160" height="16" 
                              fill="#8D6E63" opacity="0.3" rx="2"/>
                        
                        <!-- Основная дверь -->
                        <rect x="0" y="0" width="160" height="16" 
                              fill="url(#doorGradient)" stroke="#5D4037" stroke-width="1" rx="2"/>
                        
                        <!-- Ручка двери -->
                        <circle cx="148" cy="8" r="3" 
                                fill="#FFD700" stroke="#B8860B" stroke-width="0.5"/>
                        
                        <!-- Панели двери -->
                        <rect x="8" y="2" width="144" height="2" fill="#8D6E63" opacity="0.6"/>
                        <rect x="8" y="12" width="144" height="2" fill="#8D6E63" opacity="0.6"/>
                        
                        <!-- Центральная панель -->
                        <rect x="72" y="4" width="16" height="8" 
                              fill="#8D6E63" opacity="0.4" rx="1"/>
                    </g>
                <g>
<line x1="870.0872802734375" y1="1181.2972768147788" x2="1030.0872802734375" y2="1181.2972768147788" stroke="#FFFFFF" stroke-width="34" stroke-linecap="butt"/>
<line x1="870.0872802734375" y1="1166.2972768147788" x2="870.0872802734375" y2="1196.2972768147788" stroke="#2F2F2F" stroke-width="3" stroke-linecap="round"/>
<circle cx="870.0872802734375" cy="1181.2972768147788" r="8" fill="#2F2F2F"/>
<path d="M 1030.0872802734375 1181.2972768147788 A 128 128 0 0 1 998.0872802734375 1309.2972768147788" stroke="#2F2F2F" stroke-width="3" fill="none" stroke-linecap="round"/>
<circle cx="1030.0872802734375" cy="1181.2972768147788" r="8" fill="#2F2F2F"/></g><g>
<line x1="875.6289813701924" y1="1060.9656982421875" x2="875.6289813701924" y2="1220.9656982421875" stroke="#FFFFFF" stroke-width="34" stroke-linecap="butt"/>
<line x1="860.6289813701924" y1="1060.9656982421875" x2="890.6289813701924" y2="1060.9656982421875" stroke="#2F2F2F" stroke-width="3" stroke-linecap="round"/>
<circle cx="875.6289813701924" cy="1060.9656982421875" r="8" fill="#2F2F2F"/>
<path d="M 875.6289813701924 1220.9656982421875 A 128 128 0 0 0 747.6289813701924 1188.9656982421875" stroke="#2F2F2F" stroke-width="3" fill="none" stroke-linecap="round"/>
<circle cx="875.6289813701924" cy="1220.9656982421875" r="8" fill="#2F2F2F"/></g><g>
                <line x1="482" y1="221" x2="1478" y2="221" 
                      stroke="#2F2F2F" stroke-width="2.6666666666666665" stroke-linecap="square"/>
                <line x1="482" y1="259" x2="1478" y2="259" 
                      stroke="#2F2F2F" stroke-width="2.6666666666666665" stroke-linecap="square"/>
            
                <line x1="480" y1="230.66666666666669" x2="1480" y2="230.66666666666669" 
                      stroke="#2F2F2F" stroke-width="2.6666666666666665" stroke-linecap="square"/>
                <line x1="480" y1="249.33333333333334" x2="1480" y2="249.33333333333334" 
                      stroke="#2F2F2F" stroke-width="2.6666666666666665" stroke-linecap="square"/>
            
                    <line x1="813.3333333333333" y1="230.66666666666669" x2="813.3333333333333" y2="249.33333333333334" 
                          stroke="#2F2F2F" stroke-width="2.6666666666666665" stroke-linecap="square"/>
                
                    <line x1="1146.6666666666665" y1="230.66666666666669" x2="1146.6666666666665" y2="249.33333333333334" 
                          stroke="#2F2F2F" stroke-width="2.6666666666666665" stroke-linecap="square"/>
                </g><g>
                <line x1="1661" y1="402" x2="1661" y2="697.1751708984375" 
                      stroke="#2F2F2F" stroke-width="2.6666666666666665" stroke-linecap="square"/>
                <line x1="1699" y1="402" x2="1699" y2="697.1751708984375" 
                      stroke="#2F2F2F" stroke-width="2.6666666666666665" stroke-linecap="square"/>
            
                <line x1="1670.6666666666665" y1="400" x2="1670.6666666666665" y2="699.1751708984375" 
                      stroke="#2F2F2F" stroke-width="2.6666666666666665" stroke-linecap="square"/>
                <line x1="1689.3333333333333" y1="400" x2="1689.3333333333333" y2="699.1751708984375" 
                      stroke="#2F2F2F" stroke-width="2.6666666666666665" stroke-linecap="square"/>
            
                    <line x1="1670.6666666666665" y1="499.7250569661458" x2="1689.3333333333333" y2="499.7250569661458" 
                          stroke="#2F2F2F" stroke-width="2.6666666666666665" stroke-linecap="square"/>
                
                    <line x1="1670.6666666666665" y1="599.4501139322916" x2="1689.3333333333333" y2="599.4501139322916" 
                          stroke="#2F2F2F" stroke-width="2.6666666666666665" stroke-linecap="square"/>
                </g>
<line x1="320" y1="840" x2="320" y2="887.2727272727273" stroke="url(#wallHatch)" stroke-width="40" stroke-linecap="square" stroke-linejoin="miter"/>
<line x1="320" y1="887.2727272727273" x2="320" y2="934.5454545454545" stroke="url(#wallHatch)" stroke-width="40" stroke-linecap="square" stroke-linejoin="miter"/>
<line x1="320" y1="934.5454545454545" x2="320" y2="981.8181818181818" stroke="url(#wallHatch)" stroke-width="40" stroke-linecap="square" stroke-linejoin="miter"/>
<line x1="320" y1="981.8181818181818" x2="320" y2="1029.090909090909" stroke="url(#wallHatch)" stroke-width="40" stroke-linecap="square" stroke-linejoin="miter"/>
<line x1="320" y1="1029.090909090909" x2="320" y2="1076.3636363636365" stroke="url(#wallHatch)" stroke-width="40" stroke-linecap="square" stroke-linejoin="miter"/>
<line x1="320" y1="1076.3636363636365" x2="320" y2="1123.6363636363635" stroke="url(#wallHatch)" stroke-width="40" stroke-linecap="square" stroke-linejoin="miter"/>
<line x1="320" y1="1123.6363636363635" x2="320" y2="1170.909090909091" stroke="url(#wallHatch)" stroke-width="40" stroke-linecap="square" stroke-linejoin="miter"/>
<line x1="320" y1="1170.909090909091" x2="320" y2="1218.1818181818182" stroke="url(#wallHatch)" stroke-width="40" stroke-linecap="square" stroke-linejoin="miter"/>
<line x1="320" y1="1218.1818181818182" x2="320" y2="1265.4545454545455" stroke="url(#wallHatch)" stroke-width="40" stroke-linecap="square" stroke-linejoin="miter"/>
<line x1="320" y1="1265.4545454545455" x2="320" y2="1312.7272727272727" stroke="url(#wallHatch)" stroke-width="40" stroke-linecap="square" stroke-linejoin="miter"/>
<line x1="320" y1="1312.7272727272727" x2="320" y2="1360" stroke="url(#wallHatch)" stroke-width="40" stroke-linecap="square" stroke-linejoin="miter"/>
<line x1="1280" y1="840" x2="1280" y2="887.2727272727273" stroke="url(#wallHatch)" stroke-width="40" stroke-linecap="square" stroke-linejoin="miter"/>
<line x1="1280" y1="887.2727272727273" x2="1280" y2="934.5454545454545" stroke="url(#wallHatch)" stroke-width="40" stroke-linecap="square" stroke-linejoin="miter"/>
<line x1="1280" y1="934.5454545454545" x2="1280" y2="981.8181818181818" stroke="url(#wallHatch)" stroke-width="40" stroke-linecap="square" stroke-linejoin="miter"/>
<line x1="1280" y1="981.8181818181818" x2="1280" y2="1029.090909090909" stroke="url(#wallHatch)" stroke-width="40" stroke-linecap="square" stroke-linejoin="miter"/>
<line x1="1280" y1="1029.090909090909" x2="1280" y2="1076.3636363636365" stroke="url(#wallHatch)" stroke-width="40" stroke-linecap="square" stroke-linejoin="miter"/>
<line x1="1280" y1="1076.3636363636365" x2="1280" y2="1123.6363636363635" stroke="url(#wallHatch)" stroke-width="40" stroke-linecap="square" stroke-linejoin="miter"/>
<line x1="1280" y1="1312.7272727272727" x2="1280" y2="1360" stroke="url(#wallHatch)" stroke-width="40" stroke-linecap="square" stroke-linejoin="miter"/>
<line x1="320" y1="840" x2="368.8888888888889" y2="840" stroke="url(#wallHatch)" stroke-width="20" stroke-linecap="square" stroke-linejoin="miter"/>
<line x1="368.8888888888889" y1="840" x2="417.77777777777777" y2="840" stroke="url(#wallHatch)" stroke-width="20" stroke-linecap="square" stroke-linejoin="miter"/>
<line x1="417.77777777777777" y1="840" x2="466.66666666666663" y2="840" stroke="url(#wallHatch)" stroke-width="20" stroke-linecap="square" stroke-linejoin="miter"/>
<line x1="466.66666666666663" y1="840" x2="515.5555555555555" y2="840" stroke="url(#wallHatch)" stroke-width="20" stroke-linecap="square" stroke-linejoin="miter"/>
<line x1="515.5555555555555" y1="840" x2="564.4444444444445" y2="840" stroke="url(#wallHatch)" stroke-width="20" stroke-linecap="square" stroke-linejoin="miter"/>
<line x1="564.4444444444445" y1="840" x2="613.3333333333333" y2="840" stroke="url(#wallHatch)" stroke-width="20" stroke-linecap="square" stroke-linejoin="miter"/>
<line x1="613.3333333333333" y1="840" x2="662.2222222222222" y2="840" stroke="url(#wallHatch)" stroke-width="20" stroke-linecap="square" stroke-linejoin="miter"/>
<line x1="662.2222222222222" y1="840" x2="711.1111111111111" y2="840" stroke="url(#wallHatch)" stroke-width="20" stroke-linecap="square" stroke-linejoin="miter"/>
<line x1="711.1111111111111" y1="840" x2="760" y2="840" stroke="url(#wallHatch)" stroke-width="20" stroke-linecap="square" stroke-linejoin="miter"/>
<line x1="760" y1="840" x2="808.8888888888889" y2="840" stroke="url(#wallHatch)" stroke-width="20" stroke-linecap="square" stroke-linejoin="miter"/>
<line x1="808.8888888888889" y1="840" x2="857.7777777777778" y2="840" stroke="url(#wallHatch)" stroke-width="20" stroke-linecap="square" stroke-linejoin="miter"/>
<line x1="857.7777777777778" y1="840" x2="906.6666666666666" y2="840" stroke="url(#wallHatch)" stroke-width="20" stroke-linecap="square" stroke-linejoin="miter"/>
<line x1="906.6666666666666" y1="840" x2="955.5555555555555" y2="840" stroke="url(#wallHatch)" stroke-width="20" stroke-linecap="square" stroke-linejoin="miter"/>
<line x1="1102.2222222222222" y1="840" x2="1151.111111111111" y2="840" stroke="url(#wallHatch)" stroke-width="20" stroke-linecap="square" stroke-linejoin="miter"/>
<line x1="1151.111111111111" y1="840" x2="1200" y2="840" stroke="url(#wallHatch)" stroke-width="20" stroke-linecap="square" stroke-linejoin="miter"/>
<line x1="1200" y1="840" x2="1248.888888888889" y2="840" stroke="url(#wallHatch)" stroke-width="20" stroke-linecap="square" stroke-linejoin="miter"/>
<line x1="1248.888888888889" y1="840" x2="1297.7777777777778" y2="840" stroke="url(#wallHatch)" stroke-width="20" stroke-linecap="square" stroke-linejoin="miter"/>
<line x1="1297.7777777777778" y1="840" x2="1346.6666666666667" y2="840" stroke="url(#wallHatch)" stroke-width="40" stroke-linecap="square" stroke-linejoin="miter"/>
<line x1="1346.6666666666667" y1="840" x2="1395.5555555555557" y2="840" stroke="url(#wallHatch)" stroke-width="40" stroke-linecap="square" stroke-linejoin="miter"/>
<line x1="1395.5555555555557" y1="840" x2="1444.4444444444443" y2="840" stroke="url(#wallHatch)" stroke-width="40" stroke-linecap="square" stroke-linejoin="miter"/>
<line x1="1444.4444444444443" y1="840" x2="1493.3333333333333" y2="840" stroke="url(#wallHatch)" stroke-width="40" stroke-linecap="square" stroke-linejoin="miter"/>
<line x1="1493.3333333333333" y1="840" x2="1542.2222222222222" y2="840" stroke="url(#wallHatch)" stroke-width="40" stroke-linecap="square" stroke-linejoin="miter"/>
<line x1="1542.2222222222222" y1="840" x2="1591.111111111111" y2="840" stroke="url(#wallHatch)" stroke-width="40" stroke-linecap="square" stroke-linejoin="miter"/>
<line x1="1591.111111111111" y1="840" x2="1640" y2="840" stroke="url(#wallHatch)" stroke-width="40" stroke-linecap="square" stroke-linejoin="miter"/>
<line x1="320" y1="1360" x2="368" y2="1360" stroke="url(#wallHatch)" stroke-width="40" stroke-linecap="square" stroke-linejoin="miter"/>
<line x1="368" y1="1360" x2="416" y2="1360" stroke="url(#wallHatch)" stroke-width="40" stroke-linecap="square" stroke-linejoin="miter"/>
<line x1="416" y1="1360" x2="464" y2="1360" stroke="url(#wallHatch)" stroke-width="40" stroke-linecap="square" stroke-linejoin="miter"/>
<line x1="464" y1="1360" x2="512" y2="1360" stroke="url(#wallHatch)" stroke-width="40" stroke-linecap="square" stroke-linejoin="miter"/>
<line x1="512" y1="1360" x2="560" y2="1360" stroke="url(#wallHatch)" stroke-width="40" stroke-linecap="square" stroke-linejoin="miter"/>
<line x1="560" y1="1360" x2="608" y2="1360" stroke="url(#wallHatch)" stroke-width="40" stroke-linecap="square" stroke-linejoin="miter"/>
<line x1="608" y1="1360" x2="656" y2="1360" stroke="url(#wallHatch)" stroke-width="40" stroke-linecap="square" stroke-linejoin="miter"/>
<line x1="656" y1="1360" x2="704" y2="1360" stroke="url(#wallHatch)" stroke-width="40" stroke-linecap="square" stroke-linejoin="miter"/>
<line x1="704" y1="1360" x2="752" y2="1360" stroke="url(#wallHatch)" stroke-width="40" stroke-linecap="square" stroke-linejoin="miter"/>
<line x1="752" y1="1360" x2="800" y2="1360" stroke="url(#wallHatch)" stroke-width="40" stroke-linecap="square" stroke-linejoin="miter"/>
<line x1="800" y1="1360" x2="848" y2="1360" stroke="url(#wallHatch)" stroke-width="40" stroke-linecap="square" stroke-linejoin="miter"/>
<line x1="848" y1="1360" x2="896" y2="1360" stroke="url(#wallHatch)" stroke-width="40" stroke-linecap="square" stroke-linejoin="miter"/>
<line x1="896" y1="1360" x2="944" y2="1360" stroke="url(#wallHatch)" stroke-width="40" stroke-linecap="square" stroke-linejoin="miter"/>
<line x1="944" y1="1360" x2="992" y2="1360" stroke="url(#wallHatch)" stroke-width="40" stroke-linecap="square" stroke-linejoin="miter"/>
<line x1="992" y1="1360" x2="1040" y2="1360" stroke="url(#wallHatch)" stroke-width="40" stroke-linecap="square" stroke-linejoin="miter"/>
<line x1="1040" y1="1360" x2="1088" y2="1360" stroke="url(#wallHatch)" stroke-width="40" stroke-linecap="square" stroke-linejoin="miter"/>
<line x1="1088" y1="1360" x2="1136" y2="1360" stroke="url(#wallHatch)" stroke-width="40" stroke-linecap="square" stroke-linejoin="miter"/>
<line x1="1136" y1="1360" x2="1184" y2="1360" stroke="url(#wallHatch)" stroke-width="40" stroke-linecap="square" stroke-linejoin="miter"/>
<line x1="1184" y1="1360" x2="1232" y2="1360" stroke="url(#wallHatch)" stroke-width="40" stroke-linecap="square" stroke-linejoin="miter"/>
<line x1="1232" y1="1360" x2="1280" y2="1360" stroke="url(#wallHatch)" stroke-width="40" stroke-linecap="square" stroke-linejoin="miter"/>
<line x1="320" y1="240" x2="320" y2="290" stroke="url(#wallHatch)" stroke-width="40" stroke-linecap="square" stroke-linejoin="miter"/>
<line x1="320" y1="290" x2="320" y2="340" stroke="url(#wallHatch)" stroke-width="40" stroke-linecap="square" stroke-linejoin="miter"/>
<line x1="320" y1="340" x2="320" y2="390" stroke="url(#wallHatch)" stroke-width="40" stroke-linecap="square" stroke-linejoin="miter"/>
<line x1="320" y1="390" x2="320" y2="440" stroke="url(#wallHatch)" stroke-width="40" stroke-linecap="square" stroke-linejoin="miter"/>
<line x1="320" y1="440" x2="320" y2="490" stroke="url(#wallHatch)" stroke-width="40" stroke-linecap="square" stroke-linejoin="miter"/>
<line x1="320" y1="490" x2="320" y2="540" stroke="url(#wallHatch)" stroke-width="40" stroke-linecap="square" stroke-linejoin="miter"/>
<line x1="320" y1="540" x2="320" y2="590" stroke="url(#wallHatch)" stroke-width="40" stroke-linecap="square" stroke-linejoin="miter"/>
<line x1="320" y1="590" x2="320" y2="640" stroke="url(#wallHatch)" stroke-width="40" stroke-linecap="square" stroke-linejoin="miter"/>
<line x1="320" y1="640" x2="320" y2="690" stroke="url(#wallHatch)" stroke-width="40" stroke-linecap="square" stroke-linejoin="miter"/>
<line x1="320" y1="690" x2="320" y2="740" stroke="url(#wallHatch)" stroke-width="40" stroke-linecap="square" stroke-linejoin="miter"/>
<line x1="320" y1="740" x2="320" y2="790" stroke="url(#wallHatch)" stroke-width="40" stroke-linecap="square" stroke-linejoin="miter"/>
<line x1="320" y1="790" x2="320" y2="840" stroke="url(#wallHatch)" stroke-width="40" stroke-linecap="square" stroke-linejoin="miter"/>
<line x1="1640" y1="240" x2="1640" y2="290" stroke="url(#wallHatch)" stroke-width="40" stroke-linecap="square" stroke-linejoin="miter"/>
<line x1="1640" y1="290" x2="1640" y2="340" stroke="url(#wallHatch)" stroke-width="40" stroke-linecap="square" stroke-linejoin="miter"/>
<line x1="1640" y1="340" x2="1640" y2="390" stroke="url(#wallHatch)" stroke-width="40" stroke-linecap="square" stroke-linejoin="miter"/>
<line x1="1640" y1="690" x2="1640" y2="740" stroke="url(#wallHatch)" stroke-width="40" stroke-linecap="square" stroke-linejoin="miter"/>
<line x1="1640" y1="740" x2="1640" y2="790" stroke="url(#wallHatch)" stroke-width="40" stroke-linecap="square" stroke-linejoin="miter"/>
<line x1="1640" y1="790" x2="1640" y2="840" stroke="url(#wallHatch)" stroke-width="40" stroke-linecap="square" stroke-linejoin="miter"/>
<line x1="320" y1="240" x2="368.8888888888889" y2="240" stroke="url(#wallHatch)" stroke-width="40" stroke-linecap="square" stroke-linejoin="miter"/>
<line x1="368.8888888888889" y1="240" x2="417.77777777777777" y2="240" stroke="url(#wallHatch)" stroke-width="40" stroke-linecap="square" stroke-linejoin="miter"/>
<line x1="417.77777777777777" y1="240" x2="466.66666666666663" y2="240" stroke="url(#wallHatch)" stroke-width="40" stroke-linecap="square" stroke-linejoin="miter"/>
<line x1="1493.3333333333333" y1="240" x2="1542.2222222222222" y2="240" stroke="url(#wallHatch)" stroke-width="40" stroke-linecap="square" stroke-linejoin="miter"/>
<line x1="1542.2222222222222" y1="240" x2="1591.111111111111" y2="240" stroke="url(#wallHatch)" stroke-width="40" stroke-linecap="square" stroke-linejoin="miter"/>
<line x1="1591.111111111111" y1="240" x2="1640" y2="240" stroke="url(#wallHatch)" stroke-width="40" stroke-linecap="square" stroke-linejoin="miter"/>
<rect x="340" y="860" width="172.79999999999998" height="124.8" fill="#F5F6F9" stroke="#2F2F2F" stroke-width="4" stroke-linecap="round" stroke-linejoin="round"/>
<line x1="426.4" y1="860" x2="426.4" y2="984.8" stroke="#2F2F2F" stroke-width="2" stroke-linecap="round"/>
<circle cx="391.84" cy="922.4" r="4" fill="none" stroke="#2F2F2F" stroke-width="2"/>
<circle cx="460.96" cy="922.4" r="4" fill="none" stroke="#2F2F2F" stroke-width="2"/>
<rect x="838.4" y="1120.8" width="115.19999999999999" height="62.4" rx="9.36" ry="9.36" fill="#F5F6F9" stroke="#2F2F2F" stroke-width="4" stroke-linecap="round" stroke-linejoin="round"/>
<rect x="872.96" y="1191.52" width="46.08" height="24.96" rx="4.992000000000001" ry="4.992000000000001" fill="#F5F6F9" stroke="#2F2F2F" stroke-width="4" stroke-linecap="round" stroke-linejoin="round"/>
<rect x="872.96" y="1181.12" width="46.08" height="10.4" fill="#F5F6F9" stroke="#2F2F2F" stroke-width="4"/>
<rect x="340" y="1068.8" width="230.39999999999998" height="62.4" fill="#F5F6F9" stroke="#2F2F2F" stroke-width="4" stroke-linecap="round" stroke-linejoin="round"/>
<rect x="344.992" y="1073.792" width="220.41599999999997" height="9.43488" fill="#F5F6F9" stroke="#2F2F2F" stroke-width="4"/>
<rect x="344.992" y="1085.43104" width="105.79967999999998" height="40.485119999999995" fill="#F5F6F9" stroke="#2F2F2F" stroke-width="4"/>
<rect x="459.60832" y="1085.43104" width="105.79967999999998" height="40.485119999999995" fill="#F5F6F9" stroke="#2F2F2F" stroke-width="4"/>
<rect x="454.4" y="1027.2" width="115.19999999999999" height="41.6" fill="#F5F6F9" stroke="#2F2F2F" stroke-width="4" stroke-linecap="round" stroke-linejoin="round"/>
<circle cx="483.2" cy="1039.68" r="7.4879999999999995" fill="none" stroke="#2F2F2F" stroke-width="2"/>
<circle cx="521.216" cy="1039.68" r="7.4879999999999995" fill="none" stroke="#2F2F2F" stroke-width="2"/>
<circle cx="483.2" cy="1053.4080000000001" r="7.4879999999999995" fill="none" stroke="#2F2F2F" stroke-width="2"/>
<circle cx="521.216" cy="1053.4080000000001" r="7.4879999999999995" fill="none" stroke="#2F2F2F" stroke-width="2"/>
<rect x="550.4" y="860.8" width="115.19999999999999" height="62.4" fill="#F5F6F9" stroke="#2F2F2F" stroke-width="4" stroke-linecap="round" stroke-linejoin="round"/>
<circle cx="608" cy="892" r="15.6" fill="none" stroke="#2F2F2F" stroke-width="2"/>
<rect x="386" y="366" width="396" height="108" fill="#F5F6F9" stroke="#2F2F2F" stroke-width="4" stroke-linecap="round" stroke-linejoin="round"/>
<rect x="394.64" y="374.64" width="378.72" height="16.3296" fill="#F5F6F9" stroke="#2F2F2F" stroke-width="4"/>
<rect x="394.64" y="394.7568" width="181.78560000000002" height="70.0704" fill="#F5F6F9" stroke="#2F2F2F" stroke-width="4"/>
<rect x="591.5744000000001" y="394.7568" width="181.78560000000002" height="70.0704" fill="#F5F6F9" stroke="#2F2F2F" stroke-width="4"/>
<rect x="932.48" y="518.4" width="95.04" height="43.199999999999996" rx="8.639999999999999" ry="8.639999999999999" fill="#F5F6F9" stroke="#2F2F2F" stroke-width="4" stroke-linecap="round" stroke-linejoin="round"/>
<rect x="932.48" y="500.4" width="95.04" height="18" fill="#F5F6F9" stroke="#2F2F2F" stroke-width="4"/>
<rect x="729.2" y="444" width="237.6" height="72" rx="10.799999999999999" ry="10.799999999999999" fill="#F5F6F9" stroke="#2F2F2F" stroke-width="4" stroke-linecap="round" stroke-linejoin="round"/>
<rect x="821.6" y="486" width="316.8" height="108" fill="#F5F6F9" stroke="#2F2F2F" stroke-width="4" stroke-linecap="round" stroke-linejoin="round"/>
<rect x="846.9440000000001" y="515.7" width="69.696" height="48.6" rx="9.72" ry="9.72" fill="#F5F6F9" stroke="#2F2F2F" stroke-width="4" stroke-linecap="round" stroke-linejoin="round"/>
<circle cx="1027.52" cy="540" r="8.64" fill="none" stroke="#2F2F2F" stroke-width="2"/>
<circle cx="1084.5439999999999" cy="540" r="8.64" fill="none" stroke="#2F2F2F" stroke-width="2"/>
<circle cx="1027.52" cy="559.44" r="8.64" fill="none" stroke="#2F2F2F" stroke-width="2"/>
<circle cx="1084.5439999999999" cy="559.44" r="8.64" fill="none" stroke="#2F2F2F" stroke-width="2"/>
<text x="800" y="1090.4" text-anchor="middle" font-family="Inter, Arial, sans-serif" font-size="48" font-weight="700" fill="#1D1D1D" stroke="#FFFFFF" stroke-width="3" paint-order="stroke">Прихожая</text>
<text x="800" y="1136" text-anchor="middle" font-family="Inter, Arial, sans-serif" font-size="34" fill="#2F2F2F" stroke="#FFFFFF" stroke-width="2" paint-order="stroke">10.0 м²</text>
<text x="980" y="530.4" text-anchor="middle" font-family="Inter, Arial, sans-serif" font-size="48" font-weight="700" fill="#1D1D1D" stroke="#FFFFFF" stroke-width="3" paint-order="stroke">Кухня</text>
<text x="980" y="576" text-anchor="middle" font-family="Inter, Arial, sans-serif" font-size="34" fill="#2F2F2F" stroke="#FFFFFF" stroke-width="2" paint-order="stroke">21.0 м²</text></svg>