<svg width="2000" height="1400" xmlns="http://www.w3.org/2000/svg" style="background-color: #ECECEC; shape-rendering: crispEdges;">
<defs>
  <pattern id="wallHatch" width="12" height="12" patternUnits="userSpaceOnUse" patternTransform="rotate(45)">
    <rect width="12" height="12" fill="#2F2F2F"/>
    <rect y="6" width="12" height="6" fill="#3C3C3C"/>
  </pattern>
  <pattern id="windowStripe" width="6" height="6" patternUnits="userSpaceOnUse">
    <rect width="6" height="6" fill="#FFFFFF"/>
    <rect x="0" y="2" width="6" height="2" fill="#CFCFCF"/>
  </pattern>
  <linearGradient id="doorGradient" x1="0%" y1="0%" x2="100%" y2="100%">
    <stop offset="0%" style="stop-color:#D7CCC8;stop-opacity:1" />
    <stop offset="50%" style="stop-color:#BCAAA4;stop-opacity:1" />
    <stop offset="100%" style="stop-color:#A1887F;stop-opacity:1" />
  </linearGradient>
</defs>
<rect width="100%" height="100%" fill="#ECECEC"/>
<rect x="400" y="360" width="1080" height="800" fill="#FFFFFF" stroke="none" stroke-width="0"/>
<line x1="400" y1="360" x2="400" y2="410" stroke="url(#wallHatch)" stroke-width="30" stroke-linecap="square" stroke-linejoin="miter"/>
<line x1="400" y1="410" x2="400" y2="460" stroke="url(#wallHatch)" stroke-width="30" stroke-linecap="square" stroke-linejoin="miter"/>
<line x1="400" y1="460" x2="400" y2="510" stroke="url(#wallHatch)" stroke-width="30" stroke-linecap="square" stroke-linejoin="miter"/>
<line x1="400" y1="510" x2="400" y2="560" stroke="url(#wallHatch)" stroke-width="30" stroke-linecap="square" stroke-linejoin="miter"/>
<line x1="400" y1="560" x2="400" y2="610" stroke="url(#wallHatch)" stroke-width="30" stroke-linecap="square" stroke-linejoin="miter"/>
<line x1="400" y1="610" x2="400" y2="660" stroke="url(#wallHatch)" stroke-width="30" stroke-linecap="square" stroke-linejoin="miter"/>
<line x1="400" y1="660" x2="400" y2="710" stroke="url(#wallHatch)" stroke-width="30" stroke-linecap="square" stroke-linejoin="miter"/>
<line x1="400" y1="710" x2="400" y2="760" stroke="url(#wallHatch)" stroke-width="30" stroke-linecap="square" stroke-linejoin="miter"/>
<line x1="400" y1="760" x2="400" y2="810" stroke="url(#wallHatch)" stroke-width="30" stroke-linecap="square" stroke-linejoin="miter"/>
<line x1="400" y1="810" x2="400" y2="860" stroke="url(#wallHatch)" stroke-width="30" stroke-linecap="square" stroke-linejoin="miter"/>
<line x1="400" y1="860" x2="400" y2="910" stroke="url(#wallHatch)" stroke-width="30" stroke-linecap="square" stroke-linejoin="miter"/>
<line x1="400" y1="910" x2="400" y2="960" stroke="url(#wallHatch)" stroke-width="30" stroke-linecap="square" stroke-linejoin="miter"/>
<line x1="400" y1="960" x2="400" y2="1010" stroke="url(#wallHatch)" stroke-width="30" stroke-linecap="square" stroke-linejoin="miter"/>
<line x1="400" y1="1010" x2="400" y2="1060" stroke="url(#wallHatch)" stroke-width="30" stroke-linecap="square" stroke-linejoin="miter"/>
<line x1="400" y1="1060" x2="400" y2="1110" stroke="url(#wallHatch)" stroke-width="30" stroke-linecap="square" stroke-linejoin="miter"/>
<line x1="400" y1="1110" x2="400" y2="1160" stroke="url(#wallHatch)" stroke-width="30" stroke-linecap="square" stroke-linejoin="miter"/>
<line x1="1480" y1="360" x2="1480" y2="410" stroke="url(#wallHatch)" stroke-width="30" stroke-linecap="square" stroke-linejoin="miter"/>
<line x1="1480" y1="410" x2="1480" y2="460" stroke="url(#wallHatch)" stroke-width="30" stroke-linecap="square" stroke-linejoin="miter"/>
<line x1="1480" y1="460" x2="1480" y2="510" stroke="url(#wallHatch)" stroke-width="30" stroke-linecap="square" stroke-linejoin="miter"/>
<line x1="1480" y1="510" x2="1480" y2="560" stroke="url(#wallHatch)" stroke-width="30" stroke-linecap="square" stroke-linejoin="miter"/>
<line x1="1480" y1="560" x2="1480" y2="610" stroke="url(#wallHatch)" stroke-width="30" stroke-linecap="square" stroke-linejoin="miter"/>
<line x1="1480" y1="610" x2="1480" y2="660" stroke="url(#wallHatch)" stroke-width="30" stroke-linecap="square" stroke-linejoin="miter"/>
<line x1="1480" y1="660" x2="1480" y2="710" stroke="url(#wallHatch)" stroke-width="30" stroke-linecap="square" stroke-linejoin="miter"/>
<line x1="1480" y1="710" x2="1480" y2="760" stroke="url(#wallHatch)" stroke-width="30" stroke-linecap="square" stroke-linejoin="miter"/>
<line x1="1480" y1="760" x2="1480" y2="810" stroke="url(#wallHatch)" stroke-width="30" stroke-linecap="square" stroke-linejoin="miter"/>
<line x1="1480" y1="810" x2="1480" y2="860" stroke="url(#wallHatch)" stroke-width="30" stroke-linecap="square" stroke-linejoin="miter"/>
<line x1="1480" y1="860" x2="1480" y2="910" stroke="url(#wallHatch)" stroke-width="30" stroke-linecap="square" stroke-linejoin="miter"/>
<line x1="1480" y1="910" x2="1480" y2="960" stroke="url(#wallHatch)" stroke-width="30" stroke-linecap="square" stroke-linejoin="miter"/>
<line x1="1480" y1="960" x2="1480" y2="1010" stroke="url(#wallHatch)" stroke-width="30" stroke-linecap="square" stroke-linejoin="miter"/>
<line x1="1480" y1="1010" x2="1480" y2="1060" stroke="url(#wallHatch)" stroke-width="30" stroke-linecap="square" stroke-linejoin="miter"/>
<line x1="1480" y1="1060" x2="1480" y2="1110" stroke="url(#wallHatch)" stroke-width="30" stroke-linecap="square" stroke-linejoin="miter"/>
<line x1="1480" y1="1110" x2="1480" y2="1160" stroke="url(#wallHatch)" stroke-width="30" stroke-linecap="square" stroke-linejoin="miter"/>
<line x1="400" y1="360" x2="449.0909090909091" y2="360" stroke="url(#wallHatch)" stroke-width="30" stroke-linecap="square" stroke-linejoin="miter"/>
<line x1="449.0909090909091" y1="360" x2="498.1818181818182" y2="360" stroke="url(#wallHatch)" stroke-width="30" stroke-linecap="square" stroke-linejoin="miter"/>
<line x1="1283.6363636363635" y1="360" x2="1332.7272727272727" y2="360" stroke="url(#wallHatch)" stroke-width="30" stroke-linecap="square" stroke-linejoin="miter"/>
<line x1="1332.7272727272727" y1="360" x2="1381.818181818182" y2="360" stroke="url(#wallHatch)" stroke-width="30" stroke-linecap="square" stroke-linejoin="miter"/>
<line x1="1381.818181818182" y1="360" x2="1430.909090909091" y2="360" stroke="url(#wallHatch)" stroke-width="30" stroke-linecap="square" stroke-linejoin="miter"/>
<line x1="1430.909090909091" y1="360" x2="1480" y2="360" stroke="url(#wallHatch)" stroke-width="30" stroke-linecap="square" stroke-linejoin="miter"/>
<line x1="400" y1="1160" x2="449.0909090909091" y2="1160" stroke="url(#wallHatch)" stroke-width="30" stroke-linecap="square" stroke-linejoin="miter"/>
<line x1="449.0909090909091" y1="1160" x2="498.1818181818182" y2="1160" stroke="url(#wallHatch)" stroke-width="30" stroke-linecap="square" stroke-linejoin="miter"/>
<line x1="498.1818181818182" y1="1160" x2="547.2727272727273" y2="1160" stroke="url(#wallHatch)" stroke-width="30" stroke-linecap="square" stroke-linejoin="miter"/>
<line x1="547.2727272727273" y1="1160" x2="596.3636363636364" y2="1160" stroke="url(#wallHatch)" stroke-width="30" stroke-linecap="square" stroke-linejoin="miter"/>
<line x1="596.3636363636364" y1="1160" x2="645.4545454545455" y2="1160" stroke="url(#wallHatch)" stroke-width="30" stroke-linecap="square" stroke-linejoin="miter"/>
<line x1="645.4545454545455" y1="1160" x2="694.5454545454545" y2="1160" stroke="url(#wallHatch)" stroke-width="30" stroke-linecap="square" stroke-linejoin="miter"/>
<line x1="694.5454545454545" y1="1160" x2="743.6363636363636" y2="1160" stroke="url(#wallHatch)" stroke-width="30" stroke-linecap="square" stroke-linejoin="miter"/>
<line x1="743.6363636363636" y1="1160" x2="792.7272727272727" y2="1160" stroke="url(#wallHatch)" stroke-width="30" stroke-linecap="square" stroke-linejoin="miter"/>
<line x1="792.7272727272727" y1="1160" x2="841.8181818181818" y2="1160" stroke="url(#wallHatch)" stroke-width="30" stroke-linecap="square" stroke-linejoin="miter"/>
<line x1="841.8181818181818" y1="1160" x2="890.909090909091" y2="1160" stroke="url(#wallHatch)" stroke-width="30" stroke-linecap="square" stroke-linejoin="miter"/>
<line x1="890.909090909091" y1="1160" x2="940" y2="1160" stroke="url(#wallHatch)" stroke-width="30" stroke-linecap="square" stroke-linejoin="miter"/>
<line x1="940" y1="1160" x2="989.0909090909091" y2="1160" stroke="url(#wallHatch)" stroke-width="30" stroke-linecap="square" stroke-linejoin="miter"/>
<line x1="989.0909090909091" y1="1160" x2="1038.181818181818" y2="1160" stroke="url(#wallHatch)" stroke-width="30" stroke-linecap="square" stroke-linejoin="miter"/>
<line x1="1038.181818181818" y1="1160" x2="1087.2727272727273" y2="1160" stroke="url(#wallHatch)" stroke-width="30" stroke-linecap="square" stroke-linejoin="miter"/>
<line x1="1087.2727272727273" y1="1160" x2="1136.3636363636365" y2="1160" stroke="url(#wallHatch)" stroke-width="30" stroke-linecap="square" stroke-linejoin="miter"/>
<line x1="1136.3636363636365" y1="1160" x2="1185.4545454545455" y2="1160" stroke="url(#wallHatch)" stroke-width="30" stroke-linecap="square" stroke-linejoin="miter"/>
<line x1="1185.4545454545455" y1="1160" x2="1234.5454545454545" y2="1160" stroke="url(#wallHatch)" stroke-width="30" stroke-linecap="square" stroke-linejoin="miter"/>
<line x1="1234.5454545454545" y1="1160" x2="1283.6363636363635" y2="1160" stroke="url(#wallHatch)" stroke-width="30" stroke-linecap="square" stroke-linejoin="miter"/>
<line x1="1283.6363636363635" y1="1160" x2="1332.7272727272727" y2="1160" stroke="url(#wallHatch)" stroke-width="30" stroke-linecap="square" stroke-linejoin="miter"/>
<line x1="1332.7272727272727" y1="1160" x2="1381.818181818182" y2="1160" stroke="url(#wallHatch)" stroke-width="30" stroke-linecap="square" stroke-linejoin="miter"/>
<line x1="1381.818181818182" y1="1160" x2="1430.909090909091" y2="1160" stroke="url(#wallHatch)" stroke-width="30" stroke-linecap="square" stroke-linejoin="miter"/>
<line x1="1430.909090909091" y1="1160" x2="1480" y2="1160" stroke="url(#wallHatch)" stroke-width="30" stroke-linecap="square" stroke-linejoin="miter"/>
<line x1="500.7890625" y1="360" x2="505.7890625" y2="360" stroke="url(#wallHatch)" stroke-width="12" stroke-linecap="square" stroke-linejoin="miter"/>
<line x1="1307.28125" y1="360" x2="1312.28125" y2="360" stroke="url(#wallHatch)" stroke-width="12" stroke-linecap="square" stroke-linejoin="miter"/>
<line x1="505.7890625" y1="360" x2="1307.28125" y2="360" stroke="#FFFFFF" stroke-width="32" stroke-linecap="square"/><g>
                <rect x="505.7890625" y="345" width="801.4921875" height="30" 
                      fill="#2F2F2F" stroke="none"/>
            
                <line x1="505.7890625" y1="345" x2="1307.28125" y2="345" 
                      stroke="#2F2F2F" stroke-width="4" stroke-linecap="square"/>
                <line x1="505.7890625" y1="375" x2="1307.28125" y2="375" 
                      stroke="#2F2F2F" stroke-width="4" stroke-linecap="square"/>
            
                <line x1="505.7890625" y1="352.5" x2="1307.28125" y2="352.5" 
                      stroke="#2F2F2F" stroke-width="4" stroke-linecap="square"/>
                <line x1="505.7890625" y1="367.5" x2="1307.28125" y2="367.5" 
                      stroke="#2F2F2F" stroke-width="4" stroke-linecap="square"/>
            
                    <line x1="772.953125" y1="352.5" x2="772.953125" y2="367.5" 
                          stroke="#2F2F2F" stroke-width="4" stroke-linecap="square"/>
                
                    <line x1="1040.1171875" y1="352.5" x2="1040.1171875" y2="367.5" 
                          stroke="#2F2F2F" stroke-width="4" stroke-linecap="square"/>
                </g>
<rect x="420" y="400" width="259.2" height="240" fill="#F5F6F9" stroke="#2F2F2F" stroke-width="4" stroke-linecap="round" stroke-linejoin="round"/>
<line x1="549.6" y1="400" x2="549.6" y2="640" stroke="#2F2F2F" stroke-width="2" stroke-linecap="round"/>
<circle cx="497.76" cy="520" r="4" fill="none" stroke="#2F2F2F" stroke-width="2"/>
<circle cx="601.44" cy="520" r="4" fill="none" stroke="#2F2F2F" stroke-width="2"/>
<rect x="1117.12" y="836.8" width="77.75999999999999" height="86.39999999999999" rx="15.552" ry="15.552" fill="#F5F6F9" stroke="#2F2F2F" stroke-width="4" stroke-linecap="round" stroke-linejoin="round"/>
<rect x="1117.12" y="800.8" width="77.75999999999999" height="36" fill="#F5F6F9" stroke="#2F2F2F" stroke-width="4"/>
<rect x="1215.4" y="808" width="97.2" height="64" rx="9.6" ry="9.6" fill="#F5F6F9" stroke="#2F2F2F" stroke-width="4" stroke-linecap="round" stroke-linejoin="round"/>
<text x="940" y="750.4" text-anchor="middle" font-family="Inter, Arial, sans-serif" font-size="48" font-weight="700" fill="#1D1D1D" stroke="#FFFFFF" stroke-width="3" paint-order="stroke">Прихожая</text>
<text x="940" y="796" text-anchor="middle" font-family="Inter, Arial, sans-serif" font-size="34" fill="#2F2F2F" stroke="#FFFFFF" stroke-width="2" paint-order="stroke">10.0 м²</text></svg>