<svg width="2000" height="1400" xmlns="http://www.w3.org/2000/svg" style="background-color: #ECECEC; shape-rendering: crispEdges;">
<defs>
  <pattern id="wallHatch" width="12" height="12" patternUnits="userSpaceOnUse" patternTransform="rotate(45)">
    <rect width="12" height="12" fill="#2F2F2F"/>
    <rect y="6" width="12" height="6" fill="#3C3C3C"/>
  </pattern>
  <pattern id="windowStripe" width="6" height="6" patternUnits="userSpaceOnUse">
    <rect width="6" height="6" fill="#FFFFFF"/>
    <rect x="0" y="2" width="6" height="2" fill="#CFCFCF"/>
  </pattern>
  <linearGradient id="doorGradient" x1="0%" y1="0%" x2="100%" y2="100%">
    <stop offset="0%" style="stop-color:#D7CCC8;stop-opacity:1" />
    <stop offset="50%" style="stop-color:#BCAAA4;stop-opacity:1" />
    <stop offset="100%" style="stop-color:#A1887F;stop-opacity:1" />
  </linearGradient>
</defs>
<rect width="100%" height="100%" fill="#ECECEC"/>
<rect x="640" y="840" width="640" height="520" fill="#FFFFFF" stroke="none" stroke-width="0"/>
<rect x="280" y="240" width="600" height="600" fill="#FFFFFF" stroke="none" stroke-width="0"/>
<rect x="440" y="220" width="280" height="40" fill="#FFFFFF" stroke="none"/>
<rect x="860" y="421.25" width="40" height="280" fill="#FFFFFF" stroke="none"/>
<rect x="880" y="160" width="960" height="680" fill="#FFFFFF" stroke="none" stroke-width="0"/>
<rect x="1040" y="140" width="640" height="40" fill="#FFFFFF" stroke="none"/>
<rect x="1339.1640625" y="820" width="436.3828125" height="40" fill="#FFFFFF" stroke="none"/>
                    <g transform="translate(1031.828125, 1352) rotate(0)">
                        <!-- Основная линия двери -->
                        <line x1="0" y1="0" x2="160" y2="0" 
                              stroke="#2F2F2F" stroke-width="4" stroke-linecap="round"/>
                        
                        <!-- Петли (точки крепления) -->
                        <circle cx="0" cy="0" r="2" fill="#2F2F2F"/>
                        <circle cx="160" cy="0" r="2" fill="#2F2F2F"/>
                        
                        <!-- Дуга открытия двери (как в примере) -->
                        <path d="M 0 0 A 64 64 0 0 1 64 64" 
                              stroke="#2F2F2F" stroke-width="3" fill="none"/>
                        
                        <!-- Соединительная линия (вертикальная для горизонтальной двери) -->
                        <line x1="64" y1="64" 
                              x2="64" y2="0" 
                              stroke="#2F2F2F" stroke-width="3"/>
                        
                        <!-- Ручка двери -->
                        <circle cx="152" cy="0" r="1.5" 
                                fill="#2F2F2F"/>
                    </g>
                
                    <g transform="translate(1040.0048828125, 832) rotate(0)">
                        <!-- Основная линия двери -->
                        <line x1="0" y1="0" x2="160" y2="0" 
                              stroke="#2F2F2F" stroke-width="4" stroke-linecap="round"/>
                        
                        <!-- Петли (точки крепления) -->
                        <circle cx="0" cy="0" r="2" fill="#2F2F2F"/>
                        <circle cx="160" cy="0" r="2" fill="#2F2F2F"/>
                        
                        <!-- Дуга открытия двери (как в примере) -->
                        <path d="M 0 0 A 64 64 0 0 1 64 64" 
                              stroke="#2F2F2F" stroke-width="3" fill="none"/>
                        
                        <!-- Соединительная линия (вертикальная для горизонтальной двери) -->
                        <line x1="64" y1="64" 
                              x2="64" y2="0" 
                              stroke="#2F2F2F" stroke-width="3"/>
                        
                        <!-- Ручка двери -->
                        <circle cx="152" cy="0" r="1.5" 
                                fill="#2F2F2F"/>
                    </g>
                
                    <g transform="translate(800, 832) rotate(0)">
                        <!-- Основная линия двери -->
                        <line x1="0" y1="0" x2="160" y2="0" 
                              stroke="#2F2F2F" stroke-width="4" stroke-linecap="round"/>
                        
                        <!-- Петли (точки крепления) -->
                        <circle cx="0" cy="0" r="2" fill="#2F2F2F"/>
                        <circle cx="160" cy="0" r="2" fill="#2F2F2F"/>
                        
                        <!-- Дуга открытия двери (как в примере) -->
                        <path d="M 0 0 A 64 64 0 0 1 64 64" 
                              stroke="#2F2F2F" stroke-width="3" fill="none"/>
                        
                        <!-- Соединительная линия (вертикальная для горизонтальной двери) -->
                        <line x1="64" y1="64" 
                              x2="64" y2="0" 
                              stroke="#2F2F2F" stroke-width="3"/>
                        
                        <!-- Ручка двери -->
                        <circle cx="152" cy="0" r="1.5" 
                                fill="#2F2F2F"/>
                    </g>
                <g>
                <line x1="440" y1="221" x2="720" y2="221" 
                      stroke="#2F2F2F" stroke-width="2.6666666666666665" stroke-linecap="square"/>
                <line x1="440" y1="259" x2="720" y2="259" 
                      stroke="#2F2F2F" stroke-width="2.6666666666666665" stroke-linecap="square"/>
            
                <line x1="440" y1="230" x2="720" y2="230" 
                      stroke="#2F2F2F" stroke-width="2.6666666666666665" stroke-linecap="square"/>
                <line x1="440" y1="250" x2="720" y2="250" 
                      stroke="#2F2F2F" stroke-width="2.6666666666666665" stroke-linecap="square"/>
            
                    <line x1="533.3333333333334" y1="230" x2="533.3333333333334" y2="250" 
                          stroke="#2F2F2F" stroke-width="2.6666666666666665" stroke-linecap="square"/>
                
                    <line x1="626.6666666666666" y1="230" x2="626.6666666666666" y2="250" 
                          stroke="#2F2F2F" stroke-width="2.6666666666666665" stroke-linecap="square"/>
                </g><g>
                <line x1="871" y1="421.25" x2="871" y2="701.25" 
                      stroke="#2F2F2F" stroke-width="1.3333333333333333" stroke-linecap="square"/>
                <line x1="889" y1="421.25" x2="889" y2="701.25" 
                      stroke="#2F2F2F" stroke-width="1.3333333333333333" stroke-linecap="square"/>
            
                <line x1="875" y1="421.25" x2="875" y2="701.25" 
                      stroke="#2F2F2F" stroke-width="1.3333333333333333" stroke-linecap="square"/>
                <line x1="885" y1="421.25" x2="885" y2="701.25" 
                      stroke="#2F2F2F" stroke-width="1.3333333333333333" stroke-linecap="square"/>
            
                    <line x1="875" y1="514.5833333333334" x2="885" y2="514.5833333333334" 
                          stroke="#2F2F2F" stroke-width="1.3333333333333333" stroke-linecap="square"/>
                
                    <line x1="875" y1="607.9166666666666" x2="885" y2="607.9166666666666" 
                          stroke="#2F2F2F" stroke-width="1.3333333333333333" stroke-linecap="square"/>
                </g><g>
                <line x1="1040" y1="141" x2="1680" y2="141" 
                      stroke="#2F2F2F" stroke-width="2.6666666666666665" stroke-linecap="square"/>
                <line x1="1040" y1="179" x2="1680" y2="179" 
                      stroke="#2F2F2F" stroke-width="2.6666666666666665" stroke-linecap="square"/>
            
                <line x1="1040" y1="150" x2="1680" y2="150" 
                      stroke="#2F2F2F" stroke-width="2.6666666666666665" stroke-linecap="square"/>
                <line x1="1040" y1="170" x2="1680" y2="170" 
                      stroke="#2F2F2F" stroke-width="2.6666666666666665" stroke-linecap="square"/>
            
                    <line x1="1253.3333333333333" y1="150" x2="1253.3333333333333" y2="170" 
                          stroke="#2F2F2F" stroke-width="2.6666666666666665" stroke-linecap="square"/>
                
                    <line x1="1466.6666666666667" y1="150" x2="1466.6666666666667" y2="170" 
                          stroke="#2F2F2F" stroke-width="2.6666666666666665" stroke-linecap="square"/>
                </g><g>
                <line x1="1339.1640625" y1="821" x2="1775.546875" y2="821" 
                      stroke="#2F2F2F" stroke-width="2.6666666666666665" stroke-linecap="square"/>
                <line x1="1339.1640625" y1="859" x2="1775.546875" y2="859" 
                      stroke="#2F2F2F" stroke-width="2.6666666666666665" stroke-linecap="square"/>
            
                <line x1="1339.1640625" y1="830" x2="1775.546875" y2="830" 
                      stroke="#2F2F2F" stroke-width="2.6666666666666665" stroke-linecap="square"/>
                <line x1="1339.1640625" y1="850" x2="1775.546875" y2="850" 
                      stroke="#2F2F2F" stroke-width="2.6666666666666665" stroke-linecap="square"/>
            
                    <line x1="1484.625" y1="830" x2="1484.625" y2="850" 
                          stroke="#2F2F2F" stroke-width="2.6666666666666665" stroke-linecap="square"/>
                
                    <line x1="1630.0859375" y1="830" x2="1630.0859375" y2="850" 
                          stroke="#2F2F2F" stroke-width="2.6666666666666665" stroke-linecap="square"/>
                </g>
<line x1="640" y1="840" x2="640" y2="887.2727272727273" stroke="url(#wallHatch)" stroke-width="40" stroke-linecap="square" stroke-linejoin="miter"/>
<line x1="640" y1="887.2727272727273" x2="640" y2="934.5454545454545" stroke="url(#wallHatch)" stroke-width="40" stroke-linecap="square" stroke-linejoin="miter"/>
<line x1="640" y1="934.5454545454545" x2="640" y2="981.8181818181818" stroke="url(#wallHatch)" stroke-width="40" stroke-linecap="square" stroke-linejoin="miter"/>
<line x1="640" y1="981.8181818181818" x2="640" y2="1029.090909090909" stroke="url(#wallHatch)" stroke-width="40" stroke-linecap="square" stroke-linejoin="miter"/>
<line x1="640" y1="1029.090909090909" x2="640" y2="1076.3636363636365" stroke="url(#wallHatch)" stroke-width="40" stroke-linecap="square" stroke-linejoin="miter"/>
<line x1="640" y1="1076.3636363636365" x2="640" y2="1123.6363636363635" stroke="url(#wallHatch)" stroke-width="40" stroke-linecap="square" stroke-linejoin="miter"/>
<line x1="640" y1="1123.6363636363635" x2="640" y2="1170.909090909091" stroke="url(#wallHatch)" stroke-width="40" stroke-linecap="square" stroke-linejoin="miter"/>
<line x1="640" y1="1170.909090909091" x2="640" y2="1218.1818181818182" stroke="url(#wallHatch)" stroke-width="40" stroke-linecap="square" stroke-linejoin="miter"/>
<line x1="640" y1="1218.1818181818182" x2="640" y2="1265.4545454545455" stroke="url(#wallHatch)" stroke-width="40" stroke-linecap="square" stroke-linejoin="miter"/>
<line x1="640" y1="1265.4545454545455" x2="640" y2="1312.7272727272727" stroke="url(#wallHatch)" stroke-width="40" stroke-linecap="square" stroke-linejoin="miter"/>
<line x1="640" y1="1312.7272727272727" x2="640" y2="1360" stroke="url(#wallHatch)" stroke-width="40" stroke-linecap="square" stroke-linejoin="miter"/>
<line x1="1280" y1="840" x2="1280" y2="887.2727272727273" stroke="url(#wallHatch)" stroke-width="40" stroke-linecap="square" stroke-linejoin="miter"/>
<line x1="1280" y1="887.2727272727273" x2="1280" y2="934.5454545454545" stroke="url(#wallHatch)" stroke-width="40" stroke-linecap="square" stroke-linejoin="miter"/>
<line x1="1280" y1="934.5454545454545" x2="1280" y2="981.8181818181818" stroke="url(#wallHatch)" stroke-width="40" stroke-linecap="square" stroke-linejoin="miter"/>
<line x1="1280" y1="981.8181818181818" x2="1280" y2="1029.090909090909" stroke="url(#wallHatch)" stroke-width="40" stroke-linecap="square" stroke-linejoin="miter"/>
<line x1="1280" y1="1029.090909090909" x2="1280" y2="1076.3636363636365" stroke="url(#wallHatch)" stroke-width="40" stroke-linecap="square" stroke-linejoin="miter"/>
<line x1="1280" y1="1076.3636363636365" x2="1280" y2="1123.6363636363635" stroke="url(#wallHatch)" stroke-width="40" stroke-linecap="square" stroke-linejoin="miter"/>
<line x1="1280" y1="1123.6363636363635" x2="1280" y2="1170.909090909091" stroke="url(#wallHatch)" stroke-width="40" stroke-linecap="square" stroke-linejoin="miter"/>
<line x1="1280" y1="1170.909090909091" x2="1280" y2="1218.1818181818182" stroke="url(#wallHatch)" stroke-width="40" stroke-linecap="square" stroke-linejoin="miter"/>
<line x1="1280" y1="1218.1818181818182" x2="1280" y2="1265.4545454545455" stroke="url(#wallHatch)" stroke-width="40" stroke-linecap="square" stroke-linejoin="miter"/>
<line x1="1280" y1="1265.4545454545455" x2="1280" y2="1312.7272727272727" stroke="url(#wallHatch)" stroke-width="40" stroke-linecap="square" stroke-linejoin="miter"/>
<line x1="1280" y1="1312.7272727272727" x2="1280" y2="1360" stroke="url(#wallHatch)" stroke-width="40" stroke-linecap="square" stroke-linejoin="miter"/>
<line x1="280" y1="840" x2="328.75" y2="840" stroke="url(#wallHatch)" stroke-width="40" stroke-linecap="square" stroke-linejoin="miter"/>
<line x1="328.75" y1="840" x2="377.5" y2="840" stroke="url(#wallHatch)" stroke-width="40" stroke-linecap="square" stroke-linejoin="miter"/>
<line x1="377.5" y1="840" x2="426.25" y2="840" stroke="url(#wallHatch)" stroke-width="40" stroke-linecap="square" stroke-linejoin="miter"/>
<line x1="426.25" y1="840" x2="475" y2="840" stroke="url(#wallHatch)" stroke-width="40" stroke-linecap="square" stroke-linejoin="miter"/>
<line x1="475" y1="840" x2="523.75" y2="840" stroke="url(#wallHatch)" stroke-width="40" stroke-linecap="square" stroke-linejoin="miter"/>
<line x1="523.75" y1="840" x2="572.5" y2="840" stroke="url(#wallHatch)" stroke-width="40" stroke-linecap="square" stroke-linejoin="miter"/>
<line x1="572.5" y1="840" x2="621.25" y2="840" stroke="url(#wallHatch)" stroke-width="40" stroke-linecap="square" stroke-linejoin="miter"/>
<line x1="621.25" y1="840" x2="670" y2="840" stroke="url(#wallHatch)" stroke-width="20" stroke-linecap="square" stroke-linejoin="miter"/>
<line x1="670" y1="840" x2="718.75" y2="840" stroke="url(#wallHatch)" stroke-width="20" stroke-linecap="square" stroke-linejoin="miter"/>
<line x1="718.75" y1="840" x2="767.5" y2="840" stroke="url(#wallHatch)" stroke-width="20" stroke-linecap="square" stroke-linejoin="miter"/>
<line x1="767.5" y1="840" x2="816.25" y2="840" stroke="url(#wallHatch)" stroke-width="20" stroke-linecap="square" stroke-linejoin="miter"/>
<line x1="962.5" y1="840" x2="1011.25" y2="840" stroke="url(#wallHatch)" stroke-width="20" stroke-linecap="square" stroke-linejoin="miter"/>
<line x1="1011.25" y1="840" x2="1060" y2="840" stroke="url(#wallHatch)" stroke-width="20" stroke-linecap="square" stroke-linejoin="miter"/>
<line x1="1206.25" y1="840" x2="1255" y2="840" stroke="url(#wallHatch)" stroke-width="20" stroke-linecap="square" stroke-linejoin="miter"/>
<line x1="1255" y1="840" x2="1303.75" y2="840" stroke="url(#wallHatch)" stroke-width="20" stroke-linecap="square" stroke-linejoin="miter"/>
<line x1="1303.75" y1="840" x2="1352.5" y2="840" stroke="url(#wallHatch)" stroke-width="40" stroke-linecap="square" stroke-linejoin="miter"/>
<line x1="1791.25" y1="840" x2="1840" y2="840" stroke="url(#wallHatch)" stroke-width="40" stroke-linecap="square" stroke-linejoin="miter"/>
<line x1="640" y1="1360" x2="689.2307692307693" y2="1360" stroke="url(#wallHatch)" stroke-width="40" stroke-linecap="square" stroke-linejoin="miter"/>
<line x1="689.2307692307693" y1="1360" x2="738.4615384615385" y2="1360" stroke="url(#wallHatch)" stroke-width="40" stroke-linecap="square" stroke-linejoin="miter"/>
<line x1="738.4615384615385" y1="1360" x2="787.6923076923076" y2="1360" stroke="url(#wallHatch)" stroke-width="40" stroke-linecap="square" stroke-linejoin="miter"/>
<line x1="787.6923076923076" y1="1360" x2="836.9230769230769" y2="1360" stroke="url(#wallHatch)" stroke-width="40" stroke-linecap="square" stroke-linejoin="miter"/>
<line x1="836.9230769230769" y1="1360" x2="886.1538461538462" y2="1360" stroke="url(#wallHatch)" stroke-width="40" stroke-linecap="square" stroke-linejoin="miter"/>
<line x1="886.1538461538462" y1="1360" x2="935.3846153846154" y2="1360" stroke="url(#wallHatch)" stroke-width="40" stroke-linecap="square" stroke-linejoin="miter"/>
<line x1="935.3846153846154" y1="1360" x2="984.6153846153846" y2="1360" stroke="url(#wallHatch)" stroke-width="40" stroke-linecap="square" stroke-linejoin="miter"/>
<line x1="984.6153846153846" y1="1360" x2="1033.8461538461538" y2="1360" stroke="url(#wallHatch)" stroke-width="40" stroke-linecap="square" stroke-linejoin="miter"/>
<line x1="1181.5384615384614" y1="1360" x2="1230.7692307692307" y2="1360" stroke="url(#wallHatch)" stroke-width="40" stroke-linecap="square" stroke-linejoin="miter"/>
<line x1="1230.7692307692307" y1="1360" x2="1280" y2="1360" stroke="url(#wallHatch)" stroke-width="40" stroke-linecap="square" stroke-linejoin="miter"/>
<line x1="280" y1="240" x2="280" y2="290" stroke="url(#wallHatch)" stroke-width="40" stroke-linecap="square" stroke-linejoin="miter"/>
<line x1="280" y1="290" x2="280" y2="340" stroke="url(#wallHatch)" stroke-width="40" stroke-linecap="square" stroke-linejoin="miter"/>
<line x1="280" y1="340" x2="280" y2="390" stroke="url(#wallHatch)" stroke-width="40" stroke-linecap="square" stroke-linejoin="miter"/>
<line x1="280" y1="390" x2="280" y2="440" stroke="url(#wallHatch)" stroke-width="40" stroke-linecap="square" stroke-linejoin="miter"/>
<line x1="280" y1="440" x2="280" y2="490" stroke="url(#wallHatch)" stroke-width="40" stroke-linecap="square" stroke-linejoin="miter"/>
<line x1="280" y1="490" x2="280" y2="540" stroke="url(#wallHatch)" stroke-width="40" stroke-linecap="square" stroke-linejoin="miter"/>
<line x1="280" y1="540" x2="280" y2="590" stroke="url(#wallHatch)" stroke-width="40" stroke-linecap="square" stroke-linejoin="miter"/>
<line x1="280" y1="590" x2="280" y2="640" stroke="url(#wallHatch)" stroke-width="40" stroke-linecap="square" stroke-linejoin="miter"/>
<line x1="280" y1="640" x2="280" y2="690" stroke="url(#wallHatch)" stroke-width="40" stroke-linecap="square" stroke-linejoin="miter"/>
<line x1="280" y1="690" x2="280" y2="740" stroke="url(#wallHatch)" stroke-width="40" stroke-linecap="square" stroke-linejoin="miter"/>
<line x1="280" y1="740" x2="280" y2="790" stroke="url(#wallHatch)" stroke-width="40" stroke-linecap="square" stroke-linejoin="miter"/>
<line x1="280" y1="790" x2="280" y2="840" stroke="url(#wallHatch)" stroke-width="40" stroke-linecap="square" stroke-linejoin="miter"/>
<line x1="880" y1="160" x2="880" y2="208.57142857142856" stroke="url(#wallHatch)" stroke-width="40" stroke-linecap="square" stroke-linejoin="miter"/>
<line x1="880" y1="208.57142857142856" x2="880" y2="257.1428571428571" stroke="url(#wallHatch)" stroke-width="40" stroke-linecap="square" stroke-linejoin="miter"/>
<line x1="880" y1="257.1428571428571" x2="880" y2="305.7142857142857" stroke="url(#wallHatch)" stroke-width="20" stroke-linecap="square" stroke-linejoin="miter"/>
<line x1="880" y1="305.7142857142857" x2="880" y2="354.2857142857143" stroke="url(#wallHatch)" stroke-width="20" stroke-linecap="square" stroke-linejoin="miter"/>
<line x1="880" y1="354.2857142857143" x2="880" y2="402.8571428571429" stroke="url(#wallHatch)" stroke-width="20" stroke-linecap="square" stroke-linejoin="miter"/>
<line x1="880" y1="694.2857142857143" x2="880" y2="742.8571428571429" stroke="url(#wallHatch)" stroke-width="20" stroke-linecap="square" stroke-linejoin="miter"/>
<line x1="880" y1="742.8571428571429" x2="880" y2="791.4285714285714" stroke="url(#wallHatch)" stroke-width="20" stroke-linecap="square" stroke-linejoin="miter"/>
<line x1="880" y1="791.4285714285714" x2="880" y2="840" stroke="url(#wallHatch)" stroke-width="20" stroke-linecap="square" stroke-linejoin="miter"/>
<line x1="280" y1="240" x2="330" y2="240" stroke="url(#wallHatch)" stroke-width="40" stroke-linecap="square" stroke-linejoin="miter"/>
<line x1="330" y1="240" x2="380" y2="240" stroke="url(#wallHatch)" stroke-width="40" stroke-linecap="square" stroke-linejoin="miter"/>
<line x1="380" y1="240" x2="430" y2="240" stroke="url(#wallHatch)" stroke-width="40" stroke-linecap="square" stroke-linejoin="miter"/>
<line x1="730" y1="240" x2="780" y2="240" stroke="url(#wallHatch)" stroke-width="40" stroke-linecap="square" stroke-linejoin="miter"/>
<line x1="780" y1="240" x2="830" y2="240" stroke="url(#wallHatch)" stroke-width="40" stroke-linecap="square" stroke-linejoin="miter"/>
<line x1="830" y1="240" x2="880" y2="240" stroke="url(#wallHatch)" stroke-width="40" stroke-linecap="square" stroke-linejoin="miter"/>
<line x1="1840" y1="160" x2="1840" y2="208.57142857142856" stroke="url(#wallHatch)" stroke-width="40" stroke-linecap="square" stroke-linejoin="miter"/>
<line x1="1840" y1="208.57142857142856" x2="1840" y2="257.1428571428571" stroke="url(#wallHatch)" stroke-width="40" stroke-linecap="square" stroke-linejoin="miter"/>
<line x1="1840" y1="257.1428571428571" x2="1840" y2="305.7142857142857" stroke="url(#wallHatch)" stroke-width="40" stroke-linecap="square" stroke-linejoin="miter"/>
<line x1="1840" y1="305.7142857142857" x2="1840" y2="354.2857142857143" stroke="url(#wallHatch)" stroke-width="40" stroke-linecap="square" stroke-linejoin="miter"/>
<line x1="1840" y1="354.2857142857143" x2="1840" y2="402.8571428571429" stroke="url(#wallHatch)" stroke-width="40" stroke-linecap="square" stroke-linejoin="miter"/>
<line x1="1840" y1="402.8571428571429" x2="1840" y2="451.42857142857144" stroke="url(#wallHatch)" stroke-width="40" stroke-linecap="square" stroke-linejoin="miter"/>
<line x1="1840" y1="451.42857142857144" x2="1840" y2="500" stroke="url(#wallHatch)" stroke-width="40" stroke-linecap="square" stroke-linejoin="miter"/>
<line x1="1840" y1="500" x2="1840" y2="548.5714285714286" stroke="url(#wallHatch)" stroke-width="40" stroke-linecap="square" stroke-linejoin="miter"/>
<line x1="1840" y1="548.5714285714286" x2="1840" y2="597.1428571428571" stroke="url(#wallHatch)" stroke-width="40" stroke-linecap="square" stroke-linejoin="miter"/>
<line x1="1840" y1="597.1428571428571" x2="1840" y2="645.7142857142858" stroke="url(#wallHatch)" stroke-width="40" stroke-linecap="square" stroke-linejoin="miter"/>
<line x1="1840" y1="645.7142857142858" x2="1840" y2="694.2857142857143" stroke="url(#wallHatch)" stroke-width="40" stroke-linecap="square" stroke-linejoin="miter"/>
<line x1="1840" y1="694.2857142857143" x2="1840" y2="742.8571428571429" stroke="url(#wallHatch)" stroke-width="40" stroke-linecap="square" stroke-linejoin="miter"/>
<line x1="1840" y1="742.8571428571429" x2="1840" y2="791.4285714285714" stroke="url(#wallHatch)" stroke-width="40" stroke-linecap="square" stroke-linejoin="miter"/>
<line x1="1840" y1="791.4285714285714" x2="1840" y2="840" stroke="url(#wallHatch)" stroke-width="40" stroke-linecap="square" stroke-linejoin="miter"/>
<line x1="880" y1="160" x2="928" y2="160" stroke="url(#wallHatch)" stroke-width="40" stroke-linecap="square" stroke-linejoin="miter"/>
<line x1="928" y1="160" x2="976" y2="160" stroke="url(#wallHatch)" stroke-width="40" stroke-linecap="square" stroke-linejoin="miter"/>
<line x1="976" y1="160" x2="1024" y2="160" stroke="url(#wallHatch)" stroke-width="40" stroke-linecap="square" stroke-linejoin="miter"/>
<line x1="1696" y1="160" x2="1744" y2="160" stroke="url(#wallHatch)" stroke-width="40" stroke-linecap="square" stroke-linejoin="miter"/>
<line x1="1744" y1="160" x2="1792" y2="160" stroke="url(#wallHatch)" stroke-width="40" stroke-linecap="square" stroke-linejoin="miter"/>
<line x1="1792" y1="160" x2="1840" y2="160" stroke="url(#wallHatch)" stroke-width="40" stroke-linecap="square" stroke-linejoin="miter"/>
<rect x="902.4" y="1037.6" width="115.19999999999999" height="124.8" fill="#F5F6F9" stroke="#2F2F2F" stroke-width="4" stroke-linecap="round" stroke-linejoin="round"/>
<line x1="960" y1="1037.6" x2="960" y2="1162.4" stroke="#2F2F2F" stroke-width="2" stroke-linecap="round"/>
<circle cx="936.96" cy="1100" r="4" fill="none" stroke="#2F2F2F" stroke-width="2"/>
<circle cx="983.04" cy="1100" r="4" fill="none" stroke="#2F2F2F" stroke-width="2"/>
<rect x="1049.6" y="912.8" width="76.8" height="62.4" rx="9.36" ry="9.36" fill="#F5F6F9" stroke="#2F2F2F" stroke-width="4" stroke-linecap="round" stroke-linejoin="round"/>
<rect x="1104.64" y="957.52" width="30.72" height="24.96" rx="4.992000000000001" ry="4.992000000000001" fill="#F5F6F9" stroke="#2F2F2F" stroke-width="4" stroke-linecap="round" stroke-linejoin="round"/>
<rect x="1104.64" y="947.12" width="30.72" height="10.4" fill="#F5F6F9" stroke="#2F2F2F" stroke-width="4"/>
<rect x="660" y="1053.2" width="153.6" height="93.6" fill="#F5F6F9" stroke="#2F2F2F" stroke-width="4" stroke-linecap="round" stroke-linejoin="round"/>
<rect x="667.488" y="1060.688" width="138.624" height="14.152319999999998" fill="#F5F6F9" stroke="#2F2F2F" stroke-width="4"/>
<rect x="667.488" y="1076.34032" width="66.312" height="60.72767999999999" fill="#F5F6F9" stroke="#2F2F2F" stroke-width="4"/>
<rect x="739.8000000000001" y="1076.34032" width="66.312" height="60.72767999999999" fill="#F5F6F9" stroke="#2F2F2F" stroke-width="4"/>
<rect x="300" y="366" width="210" height="108" fill="#F5F6F9" stroke="#2F2F2F" stroke-width="4" stroke-linecap="round" stroke-linejoin="round"/>
<rect x="308.64" y="374.64" width="192.72" height="16.3296" fill="#F5F6F9" stroke="#2F2F2F" stroke-width="4"/>
<rect x="308.64" y="392.89680000000004" width="92.5056" height="70.0704" fill="#F5F6F9" stroke="#2F2F2F" stroke-width="4"/>
<rect x="408.8544" y="392.89680000000004" width="92.5056" height="70.0704" fill="#F5F6F9" stroke="#2F2F2F" stroke-width="4"/>
<rect x="466" y="504" width="108" height="72" rx="10.799999999999999" ry="10.799999999999999" fill="#F5F6F9" stroke="#2F2F2F" stroke-width="4" stroke-linecap="round" stroke-linejoin="round"/>
<rect x="625.6" y="518.4" width="28.799999999999997" height="43.199999999999996" rx="5.76" ry="5.76" fill="#F5F6F9" stroke="#2F2F2F" stroke-width="4" stroke-linecap="round" stroke-linejoin="round"/>
<rect x="625.6" y="500.4" width="28.799999999999997" height="18" fill="#F5F6F9" stroke="#2F2F2F" stroke-width="4"/>
<rect x="300" y="260" width="108" height="180" fill="#F5F6F9" stroke="#2F2F2F" stroke-width="4" stroke-linecap="round" stroke-linejoin="round"/>
<rect x="308.64" y="309.5" width="23.76" height="81" rx="4.752000000000001" ry="4.752000000000001" fill="#F5F6F9" stroke="#2F2F2F" stroke-width="4" stroke-linecap="round" stroke-linejoin="round"/>
<circle cx="370.2" cy="350" r="8.64" fill="none" stroke="#2F2F2F" stroke-width="2"/>
<circle cx="389.64" cy="350" r="8.64" fill="none" stroke="#2F2F2F" stroke-width="2"/>
<circle cx="370.2" cy="382.4" r="8.64" fill="none" stroke="#2F2F2F" stroke-width="2"/>
<circle cx="389.64" cy="382.4" r="8.64" fill="none" stroke="#2F2F2F" stroke-width="2"/>
<rect x="1273.6" y="398" width="172.79999999999998" height="204" fill="#F5F6F9" stroke="#2F2F2F" stroke-width="4" stroke-linecap="round" stroke-linejoin="round"/>
<circle cx="1360" cy="500" r="13.823999999999998" fill="none" stroke="#2F2F2F" stroke-width="2"/>
<rect x="1434.4" y="348.7" width="43.199999999999996" height="30.599999999999998" rx="12.959999999999999" ry="12.959999999999999" fill="#F5F6F9" stroke="#2F2F2F" stroke-width="4" stroke-linecap="round" stroke-linejoin="round"/>
<rect x="1438.72" y="318.1" width="34.559999999999995" height="20.400000000000002" fill="#F5F6F9" stroke="#2F2F2F" stroke-width="4"/>
<rect x="1192" y="401.4" width="144" height="61.199999999999996" rx="15.299999999999999" ry="15.299999999999999" fill="#F5F6F9" stroke="#2F2F2F" stroke-width="4" stroke-linecap="round" stroke-linejoin="round"/>
<rect x="1604.8" y="313" width="86.39999999999999" height="102" fill="#F5F6F9" stroke="#2F2F2F" stroke-width="4" stroke-linecap="round" stroke-linejoin="round"/>
<circle cx="1648" cy="364" r="21.599999999999998" fill="none" stroke="#2F2F2F" stroke-width="2"/>
<text x="960" y="1090.4" text-anchor="middle" font-family="Inter, Arial, sans-serif" font-size="48" font-weight="700" fill="#1D1D1D" stroke="#FFFFFF" stroke-width="3" paint-order="stroke">Прихожая</text>
<text x="960" y="1136" text-anchor="middle" font-family="Inter, Arial, sans-serif" font-size="34" fill="#2F2F2F" stroke="#FFFFFF" stroke-width="2" paint-order="stroke">10.0 м²</text>
<text x="580" y="530.4" text-anchor="middle" font-family="Inter, Arial, sans-serif" font-size="48" font-weight="700" fill="#1D1D1D" stroke="#FFFFFF" stroke-width="3" paint-order="stroke">Кухня</text>
<text x="580" y="576" text-anchor="middle" font-family="Inter, Arial, sans-serif" font-size="34" fill="#2F2F2F" stroke="#FFFFFF" stroke-width="2" paint-order="stroke">21.0 м²</text>
<text x="1360" y="490.4" text-anchor="middle" font-family="Inter, Arial, sans-serif" font-size="48" font-weight="700" fill="#1D1D1D" stroke="#FFFFFF" stroke-width="3" paint-order="stroke">Уборная</text>
<text x="1360" y="536" text-anchor="middle" font-family="Inter, Arial, sans-serif" font-size="34" fill="#2F2F2F" stroke="#FFFFFF" stroke-width="2" paint-order="stroke">6.5 м²</text></svg>