<svg width="2000" height="1400" xmlns="http://www.w3.org/2000/svg" style="background-color: #ECECEC; shape-rendering: crispEdges;">
<defs>
  <pattern id="wallHatch" width="12" height="12" patternUnits="userSpaceOnUse" patternTransform="rotate(45)">
    <rect width="12" height="12" fill="#2F2F2F"/>
    <rect y="6" width="12" height="6" fill="#3C3C3C"/>
  </pattern>
  <pattern id="windowStripe" width="6" height="6" patternUnits="userSpaceOnUse">
    <rect width="6" height="6" fill="#FFFFFF"/>
    <rect x="0" y="2" width="6" height="2" fill="#CFCFCF"/>
  </pattern>
  <linearGradient id="doorGradient" x1="0%" y1="0%" x2="100%" y2="100%">
    <stop offset="0%" style="stop-color:#D7CCC8;stop-opacity:1" />
    <stop offset="50%" style="stop-color:#BCAAA4;stop-opacity:1" />
    <stop offset="100%" style="stop-color:#A1887F;stop-opacity:1" />
  </linearGradient>
</defs>
<rect width="100%" height="100%" fill="#ECECEC"/>
<rect x="320" y="400" width="1160" height="960" fill="#FFFFFF" stroke="none" stroke-width="0"/>
<line x1="320" y1="400" x2="320" y2="448" stroke="url(#wallHatch)" stroke-width="30" stroke-linecap="square" stroke-linejoin="miter"/>
<line x1="320" y1="448" x2="320" y2="496" stroke="url(#wallHatch)" stroke-width="30" stroke-linecap="square" stroke-linejoin="miter"/>
<line x1="320" y1="496" x2="320" y2="544" stroke="url(#wallHatch)" stroke-width="30" stroke-linecap="square" stroke-linejoin="miter"/>
<line x1="320" y1="544" x2="320" y2="592" stroke="url(#wallHatch)" stroke-width="30" stroke-linecap="square" stroke-linejoin="miter"/>
<line x1="320" y1="592" x2="320" y2="640" stroke="url(#wallHatch)" stroke-width="30" stroke-linecap="square" stroke-linejoin="miter"/>
<line x1="320" y1="640" x2="320" y2="688" stroke="url(#wallHatch)" stroke-width="30" stroke-linecap="square" stroke-linejoin="miter"/>
<line x1="320" y1="688" x2="320" y2="736" stroke="url(#wallHatch)" stroke-width="30" stroke-linecap="square" stroke-linejoin="miter"/>
<line x1="320" y1="736" x2="320" y2="784" stroke="url(#wallHatch)" stroke-width="30" stroke-linecap="square" stroke-linejoin="miter"/>
<line x1="320" y1="784" x2="320" y2="832" stroke="url(#wallHatch)" stroke-width="30" stroke-linecap="square" stroke-linejoin="miter"/>
<line x1="320" y1="832" x2="320" y2="880" stroke="url(#wallHatch)" stroke-width="30" stroke-linecap="square" stroke-linejoin="miter"/>
<line x1="320" y1="880" x2="320" y2="928" stroke="url(#wallHatch)" stroke-width="30" stroke-linecap="square" stroke-linejoin="miter"/>
<line x1="320" y1="928" x2="320" y2="976" stroke="url(#wallHatch)" stroke-width="30" stroke-linecap="square" stroke-linejoin="miter"/>
<line x1="320" y1="976" x2="320" y2="1024" stroke="url(#wallHatch)" stroke-width="30" stroke-linecap="square" stroke-linejoin="miter"/>
<line x1="320" y1="1024" x2="320" y2="1072" stroke="url(#wallHatch)" stroke-width="30" stroke-linecap="square" stroke-linejoin="miter"/>
<line x1="320" y1="1072" x2="320" y2="1120" stroke="url(#wallHatch)" stroke-width="30" stroke-linecap="square" stroke-linejoin="miter"/>
<line x1="320" y1="1120" x2="320" y2="1168" stroke="url(#wallHatch)" stroke-width="30" stroke-linecap="square" stroke-linejoin="miter"/>
<line x1="320" y1="1168" x2="320" y2="1216" stroke="url(#wallHatch)" stroke-width="30" stroke-linecap="square" stroke-linejoin="miter"/>
<line x1="320" y1="1216" x2="320" y2="1264" stroke="url(#wallHatch)" stroke-width="30" stroke-linecap="square" stroke-linejoin="miter"/>
<line x1="320" y1="1264" x2="320" y2="1312" stroke="url(#wallHatch)" stroke-width="30" stroke-linecap="square" stroke-linejoin="miter"/>
<line x1="320" y1="1312" x2="320" y2="1360" stroke="url(#wallHatch)" stroke-width="30" stroke-linecap="square" stroke-linejoin="miter"/>
<line x1="1480" y1="400" x2="1480" y2="448" stroke="url(#wallHatch)" stroke-width="30" stroke-linecap="square" stroke-linejoin="miter"/>
<line x1="1480" y1="448" x2="1480" y2="496" stroke="url(#wallHatch)" stroke-width="30" stroke-linecap="square" stroke-linejoin="miter"/>
<line x1="1480" y1="496" x2="1480" y2="544" stroke="url(#wallHatch)" stroke-width="30" stroke-linecap="square" stroke-linejoin="miter"/>
<line x1="1480" y1="544" x2="1480" y2="592" stroke="url(#wallHatch)" stroke-width="30" stroke-linecap="square" stroke-linejoin="miter"/>
<line x1="1480" y1="592" x2="1480" y2="640" stroke="url(#wallHatch)" stroke-width="30" stroke-linecap="square" stroke-linejoin="miter"/>
<line x1="1480" y1="640" x2="1480" y2="688" stroke="url(#wallHatch)" stroke-width="30" stroke-linecap="square" stroke-linejoin="miter"/>
<line x1="1480" y1="688" x2="1480" y2="736" stroke="url(#wallHatch)" stroke-width="30" stroke-linecap="square" stroke-linejoin="miter"/>
<line x1="1480" y1="736" x2="1480" y2="784" stroke="url(#wallHatch)" stroke-width="30" stroke-linecap="square" stroke-linejoin="miter"/>
<line x1="1480" y1="784" x2="1480" y2="832" stroke="url(#wallHatch)" stroke-width="30" stroke-linecap="square" stroke-linejoin="miter"/>
<line x1="1480" y1="832" x2="1480" y2="880" stroke="url(#wallHatch)" stroke-width="30" stroke-linecap="square" stroke-linejoin="miter"/>
<line x1="1480" y1="880" x2="1480" y2="928" stroke="url(#wallHatch)" stroke-width="30" stroke-linecap="square" stroke-linejoin="miter"/>
<line x1="1480" y1="928" x2="1480" y2="976" stroke="url(#wallHatch)" stroke-width="30" stroke-linecap="square" stroke-linejoin="miter"/>
<line x1="1480" y1="976" x2="1480" y2="1024" stroke="url(#wallHatch)" stroke-width="30" stroke-linecap="square" stroke-linejoin="miter"/>
<line x1="1480" y1="1024" x2="1480" y2="1072" stroke="url(#wallHatch)" stroke-width="30" stroke-linecap="square" stroke-linejoin="miter"/>
<line x1="1480" y1="1072" x2="1480" y2="1120" stroke="url(#wallHatch)" stroke-width="30" stroke-linecap="square" stroke-linejoin="miter"/>
<line x1="1480" y1="1120" x2="1480" y2="1168" stroke="url(#wallHatch)" stroke-width="30" stroke-linecap="square" stroke-linejoin="miter"/>
<line x1="1480" y1="1168" x2="1480" y2="1216" stroke="url(#wallHatch)" stroke-width="30" stroke-linecap="square" stroke-linejoin="miter"/>
<line x1="1480" y1="1216" x2="1480" y2="1264" stroke="url(#wallHatch)" stroke-width="30" stroke-linecap="square" stroke-linejoin="miter"/>
<line x1="1480" y1="1264" x2="1480" y2="1312" stroke="url(#wallHatch)" stroke-width="30" stroke-linecap="square" stroke-linejoin="miter"/>
<line x1="1480" y1="1312" x2="1480" y2="1360" stroke="url(#wallHatch)" stroke-width="30" stroke-linecap="square" stroke-linejoin="miter"/>
<line x1="320" y1="400" x2="368.3333333333333" y2="400" stroke="url(#wallHatch)" stroke-width="30" stroke-linecap="square" stroke-linejoin="miter"/>
<line x1="368.3333333333333" y1="400" x2="416.6666666666667" y2="400" stroke="url(#wallHatch)" stroke-width="30" stroke-linecap="square" stroke-linejoin="miter"/>
<line x1="1335" y1="400" x2="1383.3333333333333" y2="400" stroke="url(#wallHatch)" stroke-width="30" stroke-linecap="square" stroke-linejoin="miter"/>
<line x1="1383.3333333333333" y1="400" x2="1431.6666666666667" y2="400" stroke="url(#wallHatch)" stroke-width="30" stroke-linecap="square" stroke-linejoin="miter"/>
<line x1="1431.6666666666667" y1="400" x2="1480" y2="400" stroke="url(#wallHatch)" stroke-width="30" stroke-linecap="square" stroke-linejoin="miter"/>
<line x1="320" y1="1360" x2="368.3333333333333" y2="1360" stroke="url(#wallHatch)" stroke-width="30" stroke-linecap="square" stroke-linejoin="miter"/>
<line x1="368.3333333333333" y1="1360" x2="416.6666666666667" y2="1360" stroke="url(#wallHatch)" stroke-width="30" stroke-linecap="square" stroke-linejoin="miter"/>
<line x1="416.6666666666667" y1="1360" x2="465" y2="1360" stroke="url(#wallHatch)" stroke-width="30" stroke-linecap="square" stroke-linejoin="miter"/>
<line x1="465" y1="1360" x2="513.3333333333334" y2="1360" stroke="url(#wallHatch)" stroke-width="30" stroke-linecap="square" stroke-linejoin="miter"/>
<line x1="513.3333333333334" y1="1360" x2="561.6666666666666" y2="1360" stroke="url(#wallHatch)" stroke-width="30" stroke-linecap="square" stroke-linejoin="miter"/>
<line x1="561.6666666666666" y1="1360" x2="610" y2="1360" stroke="url(#wallHatch)" stroke-width="30" stroke-linecap="square" stroke-linejoin="miter"/>
<line x1="610" y1="1360" x2="658.3333333333333" y2="1360" stroke="url(#wallHatch)" stroke-width="30" stroke-linecap="square" stroke-linejoin="miter"/>
<line x1="658.3333333333333" y1="1360" x2="706.6666666666667" y2="1360" stroke="url(#wallHatch)" stroke-width="30" stroke-linecap="square" stroke-linejoin="miter"/>
<line x1="706.6666666666667" y1="1360" x2="755" y2="1360" stroke="url(#wallHatch)" stroke-width="30" stroke-linecap="square" stroke-linejoin="miter"/>
<line x1="755" y1="1360" x2="803.3333333333333" y2="1360" stroke="url(#wallHatch)" stroke-width="30" stroke-linecap="square" stroke-linejoin="miter"/>
<line x1="803.3333333333333" y1="1360" x2="851.6666666666666" y2="1360" stroke="url(#wallHatch)" stroke-width="30" stroke-linecap="square" stroke-linejoin="miter"/>
<line x1="851.6666666666666" y1="1360" x2="900" y2="1360" stroke="url(#wallHatch)" stroke-width="30" stroke-linecap="square" stroke-linejoin="miter"/>
<line x1="900" y1="1360" x2="948.3333333333334" y2="1360" stroke="url(#wallHatch)" stroke-width="30" stroke-linecap="square" stroke-linejoin="miter"/>
<line x1="948.3333333333334" y1="1360" x2="996.6666666666666" y2="1360" stroke="url(#wallHatch)" stroke-width="30" stroke-linecap="square" stroke-linejoin="miter"/>
<line x1="996.6666666666666" y1="1360" x2="1045" y2="1360" stroke="url(#wallHatch)" stroke-width="30" stroke-linecap="square" stroke-linejoin="miter"/>
<line x1="1045" y1="1360" x2="1093.3333333333335" y2="1360" stroke="url(#wallHatch)" stroke-width="30" stroke-linecap="square" stroke-linejoin="miter"/>
<line x1="1093.3333333333335" y1="1360" x2="1141.6666666666665" y2="1360" stroke="url(#wallHatch)" stroke-width="30" stroke-linecap="square" stroke-linejoin="miter"/>
<line x1="1141.6666666666665" y1="1360" x2="1190" y2="1360" stroke="url(#wallHatch)" stroke-width="30" stroke-linecap="square" stroke-linejoin="miter"/>
<line x1="1190" y1="1360" x2="1238.3333333333335" y2="1360" stroke="url(#wallHatch)" stroke-width="30" stroke-linecap="square" stroke-linejoin="miter"/>
<line x1="1238.3333333333335" y1="1360" x2="1286.6666666666665" y2="1360" stroke="url(#wallHatch)" stroke-width="30" stroke-linecap="square" stroke-linejoin="miter"/>
<line x1="1286.6666666666665" y1="1360" x2="1335" y2="1360" stroke="url(#wallHatch)" stroke-width="30" stroke-linecap="square" stroke-linejoin="miter"/>
<line x1="1335" y1="1360" x2="1383.3333333333333" y2="1360" stroke="url(#wallHatch)" stroke-width="30" stroke-linecap="square" stroke-linejoin="miter"/>
<line x1="1383.3333333333333" y1="1360" x2="1431.6666666666667" y2="1360" stroke="url(#wallHatch)" stroke-width="30" stroke-linecap="square" stroke-linejoin="miter"/>
<line x1="1431.6666666666667" y1="1360" x2="1480" y2="1360" stroke="url(#wallHatch)" stroke-width="30" stroke-linecap="square" stroke-linejoin="miter"/>
<line x1="411.0234375" y1="400" x2="1340.2890625" y2="400" stroke="#FFFFFF" stroke-width="14" stroke-linecap="square"/><g>
                <line x1="411.0234375" y1="400" x2="1340.2890625" y2="400" 
                      stroke="#2F2F2F" stroke-width="4" stroke-linecap="square"/>
                <line x1="411.0234375" y1="412" x2="1340.2890625" y2="412" 
                      stroke="#2F2F2F" stroke-width="4" stroke-linecap="square"/>
            
                <line x1="411.0234375" y1="403.6" x2="1340.2890625" y2="403.6" 
                      stroke="#2F2F2F" stroke-width="2" stroke-linecap="square"/>
                <line x1="411.0234375" y1="408.4" x2="1340.2890625" y2="408.4" 
                      stroke="#2F2F2F" stroke-width="2" stroke-linecap="square"/>
            
                    <line x1="643.33984375" y1="403.6" x2="643.33984375" y2="408.4" 
                          stroke="#2F2F2F" stroke-width="1.2000000000000002" stroke-linecap="square"/>
                
                    <line x1="875.65625" y1="403.6" x2="875.65625" y2="408.4" 
                          stroke="#2F2F2F" stroke-width="1.2000000000000002" stroke-linecap="square"/>
                
                    <line x1="1107.97265625" y1="403.6" x2="1107.97265625" y2="408.4" 
                          stroke="#2F2F2F" stroke-width="1.2000000000000002" stroke-linecap="square"/>
                </g>
<rect x="528.8" y="764.8" width="278.4" height="230.39999999999998" fill="#F5F6F9" stroke="#2F2F2F" stroke-width="4" stroke-linecap="round" stroke-linejoin="round"/>
<line x1="668" y1="764.8" x2="668" y2="995.2" stroke="#2F2F2F" stroke-width="2" stroke-linecap="round"/>
<circle cx="612.32" cy="880" r="4" fill="none" stroke="#2F2F2F" stroke-width="2"/>
<circle cx="723.68" cy="880" r="4" fill="none" stroke="#2F2F2F" stroke-width="2"/>
<rect x="1220.16" y="952.96" width="55.68" height="46.08" rx="9.216" ry="9.216" fill="#F5F6F9" stroke="#2F2F2F" stroke-width="4" stroke-linecap="round" stroke-linejoin="round"/>
<rect x="1220.16" y="933.76" width="55.68" height="19.2" fill="#F5F6F9" stroke="#2F2F2F" stroke-width="4"/>
<rect x="1085.6" y="841.6" width="92.8" height="76.8" rx="11.52" ry="11.52" fill="#F5F6F9" stroke="#2F2F2F" stroke-width="4" stroke-linecap="round" stroke-linejoin="round"/>
<rect x="621.6" y="745.6" width="92.8" height="76.8" fill="#F5F6F9" stroke="#2F2F2F" stroke-width="4" stroke-linecap="round" stroke-linejoin="round"/>
<circle cx="644.8" cy="768.64" r="13.824" fill="none" stroke="#2F2F2F" stroke-width="2"/>
<circle cx="675.424" cy="768.64" r="13.824" fill="none" stroke="#2F2F2F" stroke-width="2"/>
<circle cx="644.8" cy="793.984" r="13.824" fill="none" stroke="#2F2F2F" stroke-width="2"/>
<circle cx="675.424" cy="793.984" r="13.824" fill="none" stroke="#2F2F2F" stroke-width="2"/>
<rect x="389.6" y="649.6" width="92.8" height="76.8" fill="#F5F6F9" stroke="#2F2F2F" stroke-width="4" stroke-linecap="round" stroke-linejoin="round"/>
<circle cx="436" cy="688" r="19.2" fill="none" stroke="#2F2F2F" stroke-width="2"/>
<text x="900" y="870.4" text-anchor="middle" font-family="Inter, Arial, sans-serif" font-size="48" font-weight="700" fill="#1D1D1D" stroke="#FFFFFF" stroke-width="3" paint-order="stroke">Прихожая</text>
<text x="900" y="916" text-anchor="middle" font-family="Inter, Arial, sans-serif" font-size="34" fill="#2F2F2F" stroke="#FFFFFF" stroke-width="2" paint-order="stroke">9.0 м²</text></svg>