<svg width="2000" height="1400" xmlns="http://www.w3.org/2000/svg" style="background-color: #ECECEC; shape-rendering: crispEdges;">
<defs>
  <pattern id="wallHatch" width="12" height="12" patternUnits="userSpaceOnUse" patternTransform="rotate(45)">
    <rect width="12" height="12" fill="#2F2F2F"/>
    <rect y="6" width="12" height="6" fill="#3C3C3C"/>
  </pattern>
  <pattern id="windowStripe" width="6" height="6" patternUnits="userSpaceOnUse">
    <rect width="6" height="6" fill="#FFFFFF"/>
    <rect x="0" y="2" width="6" height="2" fill="#CFCFCF"/>
  </pattern>
  <linearGradient id="doorGradient" x1="0%" y1="0%" x2="100%" y2="100%">
    <stop offset="0%" style="stop-color:#D7CCC8;stop-opacity:1" />
    <stop offset="50%" style="stop-color:#BCAAA4;stop-opacity:1" />
    <stop offset="100%" style="stop-color:#A1887F;stop-opacity:1" />
  </linearGradient>
</defs>
<rect width="100%" height="100%" fill="#ECECEC"/>
<rect x="480" y="360" width="1120" height="1000" fill="#FFFFFF" stroke="none" stroke-width="0"/>
<line x1="480" y1="360" x2="480" y2="410" stroke="url(#wallHatch)" stroke-width="30" stroke-linecap="square" stroke-linejoin="miter"/>
<line x1="480" y1="410" x2="480" y2="460" stroke="url(#wallHatch)" stroke-width="30" stroke-linecap="square" stroke-linejoin="miter"/>
<line x1="480" y1="460" x2="480" y2="510" stroke="url(#wallHatch)" stroke-width="30" stroke-linecap="square" stroke-linejoin="miter"/>
<line x1="480" y1="510" x2="480" y2="560" stroke="url(#wallHatch)" stroke-width="30" stroke-linecap="square" stroke-linejoin="miter"/>
<line x1="480" y1="560" x2="480" y2="610" stroke="url(#wallHatch)" stroke-width="30" stroke-linecap="square" stroke-linejoin="miter"/>
<line x1="480" y1="610" x2="480" y2="660" stroke="url(#wallHatch)" stroke-width="30" stroke-linecap="square" stroke-linejoin="miter"/>
<line x1="480" y1="660" x2="480" y2="710" stroke="url(#wallHatch)" stroke-width="30" stroke-linecap="square" stroke-linejoin="miter"/>
<line x1="480" y1="710" x2="480" y2="760" stroke="url(#wallHatch)" stroke-width="30" stroke-linecap="square" stroke-linejoin="miter"/>
<line x1="480" y1="760" x2="480" y2="810" stroke="url(#wallHatch)" stroke-width="30" stroke-linecap="square" stroke-linejoin="miter"/>
<line x1="480" y1="810" x2="480" y2="860" stroke="url(#wallHatch)" stroke-width="30" stroke-linecap="square" stroke-linejoin="miter"/>
<line x1="480" y1="860" x2="480" y2="910" stroke="url(#wallHatch)" stroke-width="30" stroke-linecap="square" stroke-linejoin="miter"/>
<line x1="480" y1="910" x2="480" y2="960" stroke="url(#wallHatch)" stroke-width="30" stroke-linecap="square" stroke-linejoin="miter"/>
<line x1="480" y1="960" x2="480" y2="1010" stroke="url(#wallHatch)" stroke-width="30" stroke-linecap="square" stroke-linejoin="miter"/>
<line x1="480" y1="1010" x2="480" y2="1060" stroke="url(#wallHatch)" stroke-width="30" stroke-linecap="square" stroke-linejoin="miter"/>
<line x1="480" y1="1060" x2="480" y2="1110" stroke="url(#wallHatch)" stroke-width="30" stroke-linecap="square" stroke-linejoin="miter"/>
<line x1="480" y1="1110" x2="480" y2="1160" stroke="url(#wallHatch)" stroke-width="30" stroke-linecap="square" stroke-linejoin="miter"/>
<line x1="480" y1="1160" x2="480" y2="1210" stroke="url(#wallHatch)" stroke-width="30" stroke-linecap="square" stroke-linejoin="miter"/>
<line x1="480" y1="1210" x2="480" y2="1260" stroke="url(#wallHatch)" stroke-width="30" stroke-linecap="square" stroke-linejoin="miter"/>
<line x1="480" y1="1260" x2="480" y2="1310" stroke="url(#wallHatch)" stroke-width="30" stroke-linecap="square" stroke-linejoin="miter"/>
<line x1="480" y1="1310" x2="480" y2="1360" stroke="url(#wallHatch)" stroke-width="30" stroke-linecap="square" stroke-linejoin="miter"/>
<line x1="1600" y1="360" x2="1600" y2="410" stroke="url(#wallHatch)" stroke-width="30" stroke-linecap="square" stroke-linejoin="miter"/>
<line x1="1600" y1="410" x2="1600" y2="460" stroke="url(#wallHatch)" stroke-width="30" stroke-linecap="square" stroke-linejoin="miter"/>
<line x1="1600" y1="460" x2="1600" y2="510" stroke="url(#wallHatch)" stroke-width="30" stroke-linecap="square" stroke-linejoin="miter"/>
<line x1="1600" y1="510" x2="1600" y2="560" stroke="url(#wallHatch)" stroke-width="30" stroke-linecap="square" stroke-linejoin="miter"/>
<line x1="1600" y1="560" x2="1600" y2="610" stroke="url(#wallHatch)" stroke-width="30" stroke-linecap="square" stroke-linejoin="miter"/>
<line x1="1600" y1="610" x2="1600" y2="660" stroke="url(#wallHatch)" stroke-width="30" stroke-linecap="square" stroke-linejoin="miter"/>
<line x1="1600" y1="660" x2="1600" y2="710" stroke="url(#wallHatch)" stroke-width="30" stroke-linecap="square" stroke-linejoin="miter"/>
<line x1="1600" y1="710" x2="1600" y2="760" stroke="url(#wallHatch)" stroke-width="30" stroke-linecap="square" stroke-linejoin="miter"/>
<line x1="1600" y1="760" x2="1600" y2="810" stroke="url(#wallHatch)" stroke-width="30" stroke-linecap="square" stroke-linejoin="miter"/>
<line x1="1600" y1="810" x2="1600" y2="860" stroke="url(#wallHatch)" stroke-width="30" stroke-linecap="square" stroke-linejoin="miter"/>
<line x1="1600" y1="860" x2="1600" y2="910" stroke="url(#wallHatch)" stroke-width="30" stroke-linecap="square" stroke-linejoin="miter"/>
<line x1="1600" y1="910" x2="1600" y2="960" stroke="url(#wallHatch)" stroke-width="30" stroke-linecap="square" stroke-linejoin="miter"/>
<line x1="1600" y1="960" x2="1600" y2="1010" stroke="url(#wallHatch)" stroke-width="30" stroke-linecap="square" stroke-linejoin="miter"/>
<line x1="1600" y1="1010" x2="1600" y2="1060" stroke="url(#wallHatch)" stroke-width="30" stroke-linecap="square" stroke-linejoin="miter"/>
<line x1="1600" y1="1060" x2="1600" y2="1110" stroke="url(#wallHatch)" stroke-width="30" stroke-linecap="square" stroke-linejoin="miter"/>
<line x1="1600" y1="1110" x2="1600" y2="1160" stroke="url(#wallHatch)" stroke-width="30" stroke-linecap="square" stroke-linejoin="miter"/>
<line x1="1600" y1="1160" x2="1600" y2="1210" stroke="url(#wallHatch)" stroke-width="30" stroke-linecap="square" stroke-linejoin="miter"/>
<line x1="1600" y1="1210" x2="1600" y2="1260" stroke="url(#wallHatch)" stroke-width="30" stroke-linecap="square" stroke-linejoin="miter"/>
<line x1="1600" y1="1260" x2="1600" y2="1310" stroke="url(#wallHatch)" stroke-width="30" stroke-linecap="square" stroke-linejoin="miter"/>
<line x1="1600" y1="1310" x2="1600" y2="1360" stroke="url(#wallHatch)" stroke-width="30" stroke-linecap="square" stroke-linejoin="miter"/>
<line x1="480" y1="360" x2="528.695652173913" y2="360" stroke="url(#wallHatch)" stroke-width="30" stroke-linecap="square" stroke-linejoin="miter"/>
<line x1="528.695652173913" y1="360" x2="577.3913043478261" y2="360" stroke="url(#wallHatch)" stroke-width="30" stroke-linecap="square" stroke-linejoin="miter"/>
<line x1="1453.913043478261" y1="360" x2="1502.608695652174" y2="360" stroke="url(#wallHatch)" stroke-width="30" stroke-linecap="square" stroke-linejoin="miter"/>
<line x1="1502.608695652174" y1="360" x2="1551.304347826087" y2="360" stroke="url(#wallHatch)" stroke-width="30" stroke-linecap="square" stroke-linejoin="miter"/>
<line x1="1551.304347826087" y1="360" x2="1600" y2="360" stroke="url(#wallHatch)" stroke-width="30" stroke-linecap="square" stroke-linejoin="miter"/>
<line x1="480" y1="1360" x2="528.695652173913" y2="1360" stroke="url(#wallHatch)" stroke-width="30" stroke-linecap="square" stroke-linejoin="miter"/>
<line x1="528.695652173913" y1="1360" x2="577.3913043478261" y2="1360" stroke="url(#wallHatch)" stroke-width="30" stroke-linecap="square" stroke-linejoin="miter"/>
<line x1="577.3913043478261" y1="1360" x2="626.0869565217391" y2="1360" stroke="url(#wallHatch)" stroke-width="30" stroke-linecap="square" stroke-linejoin="miter"/>
<line x1="626.0869565217391" y1="1360" x2="674.7826086956522" y2="1360" stroke="url(#wallHatch)" stroke-width="30" stroke-linecap="square" stroke-linejoin="miter"/>
<line x1="674.7826086956522" y1="1360" x2="723.4782608695652" y2="1360" stroke="url(#wallHatch)" stroke-width="30" stroke-linecap="square" stroke-linejoin="miter"/>
<line x1="723.4782608695652" y1="1360" x2="772.1739130434783" y2="1360" stroke="url(#wallHatch)" stroke-width="30" stroke-linecap="square" stroke-linejoin="miter"/>
<line x1="772.1739130434783" y1="1360" x2="820.8695652173913" y2="1360" stroke="url(#wallHatch)" stroke-width="30" stroke-linecap="square" stroke-linejoin="miter"/>
<line x1="820.8695652173913" y1="1360" x2="869.5652173913044" y2="1360" stroke="url(#wallHatch)" stroke-width="30" stroke-linecap="square" stroke-linejoin="miter"/>
<line x1="869.5652173913044" y1="1360" x2="918.2608695652174" y2="1360" stroke="url(#wallHatch)" stroke-width="30" stroke-linecap="square" stroke-linejoin="miter"/>
<line x1="918.2608695652174" y1="1360" x2="966.9565217391305" y2="1360" stroke="url(#wallHatch)" stroke-width="30" stroke-linecap="square" stroke-linejoin="miter"/>
<line x1="966.9565217391305" y1="1360" x2="1015.6521739130435" y2="1360" stroke="url(#wallHatch)" stroke-width="30" stroke-linecap="square" stroke-linejoin="miter"/>
<line x1="1015.6521739130435" y1="1360" x2="1064.3478260869565" y2="1360" stroke="url(#wallHatch)" stroke-width="30" stroke-linecap="square" stroke-linejoin="miter"/>
<line x1="1064.3478260869565" y1="1360" x2="1113.0434782608695" y2="1360" stroke="url(#wallHatch)" stroke-width="30" stroke-linecap="square" stroke-linejoin="miter"/>
<line x1="1113.0434782608695" y1="1360" x2="1161.7391304347825" y2="1360" stroke="url(#wallHatch)" stroke-width="30" stroke-linecap="square" stroke-linejoin="miter"/>
<line x1="1161.7391304347825" y1="1360" x2="1210.4347826086955" y2="1360" stroke="url(#wallHatch)" stroke-width="30" stroke-linecap="square" stroke-linejoin="miter"/>
<line x1="1210.4347826086955" y1="1360" x2="1259.1304347826087" y2="1360" stroke="url(#wallHatch)" stroke-width="30" stroke-linecap="square" stroke-linejoin="miter"/>
<line x1="1259.1304347826087" y1="1360" x2="1307.8260869565217" y2="1360" stroke="url(#wallHatch)" stroke-width="30" stroke-linecap="square" stroke-linejoin="miter"/>
<line x1="1307.8260869565217" y1="1360" x2="1356.5217391304348" y2="1360" stroke="url(#wallHatch)" stroke-width="30" stroke-linecap="square" stroke-linejoin="miter"/>
<line x1="1356.5217391304348" y1="1360" x2="1405.217391304348" y2="1360" stroke="url(#wallHatch)" stroke-width="30" stroke-linecap="square" stroke-linejoin="miter"/>
<line x1="1405.217391304348" y1="1360" x2="1453.913043478261" y2="1360" stroke="url(#wallHatch)" stroke-width="30" stroke-linecap="square" stroke-linejoin="miter"/>
<line x1="1453.913043478261" y1="1360" x2="1502.608695652174" y2="1360" stroke="url(#wallHatch)" stroke-width="30" stroke-linecap="square" stroke-linejoin="miter"/>
<line x1="1502.608695652174" y1="1360" x2="1551.304347826087" y2="1360" stroke="url(#wallHatch)" stroke-width="30" stroke-linecap="square" stroke-linejoin="miter"/>
<line x1="1551.304347826087" y1="1360" x2="1600" y2="1360" stroke="url(#wallHatch)" stroke-width="30" stroke-linecap="square" stroke-linejoin="miter"/><g>
                <line x1="592.390625" y1="345" x2="1434.84375" y2="345" 
                      stroke="#2F2F2F" stroke-width="4" stroke-linecap="square"/>
                <line x1="592.390625" y1="375" x2="1434.84375" y2="375" 
                      stroke="#2F2F2F" stroke-width="4" stroke-linecap="square"/>
            
                <line x1="592.390625" y1="352.5" x2="1434.84375" y2="352.5" 
                      stroke="#2F2F2F" stroke-width="4" stroke-linecap="square"/>
                <line x1="592.390625" y1="367.5" x2="1434.84375" y2="367.5" 
                      stroke="#2F2F2F" stroke-width="4" stroke-linecap="square"/>
            
                    <line x1="873.2083333333333" y1="352.5" x2="873.2083333333333" y2="367.5" 
                          stroke="#2F2F2F" stroke-width="4" stroke-linecap="square"/>
                
                    <line x1="1154.0260416666665" y1="352.5" x2="1154.0260416666665" y2="367.5" 
                          stroke="#2F2F2F" stroke-width="4" stroke-linecap="square"/>
                </g>
<rect x="905.6" y="685" width="268.8" height="350" fill="#F5F6F9" stroke="#2F2F2F" stroke-width="4" stroke-linecap="round" stroke-linejoin="round"/>
<line x1="1040" y1="685" x2="1040" y2="1035" stroke="#2F2F2F" stroke-width="2" stroke-linecap="round"/>
<circle cx="986.24" cy="860" r="4" fill="none" stroke="#2F2F2F" stroke-width="2"/>
<circle cx="1093.76" cy="860" r="4" fill="none" stroke="#2F2F2F" stroke-width="2"/>
<rect x="1196.8" y="800" width="134.4" height="120" rx="18" ry="18" fill="#F5F6F9" stroke="#2F2F2F" stroke-width="4" stroke-linecap="round" stroke-linejoin="round"/>
<rect x="1125.12" y="924" width="53.760000000000005" height="72" rx="10.752000000000002" ry="10.752000000000002" fill="#F5F6F9" stroke="#2F2F2F" stroke-width="4" stroke-linecap="round" stroke-linejoin="round"/>
<rect x="1125.12" y="894" width="53.760000000000005" height="30" fill="#F5F6F9" stroke="#2F2F2F" stroke-width="4"/>
<rect x="1013.12" y="924" width="53.760000000000005" height="72" rx="10.752000000000002" ry="10.752000000000002" fill="#F5F6F9" stroke="#2F2F2F" stroke-width="4" stroke-linecap="round" stroke-linejoin="round"/>
<rect x="1013.12" y="894" width="53.760000000000005" height="30" fill="#F5F6F9" stroke="#2F2F2F" stroke-width="4"/>
<rect x="499.99999999999994" y="1120" width="89.60000000000001" height="80" fill="#F5F6F9" stroke="#2F2F2F" stroke-width="4" stroke-linecap="round" stroke-linejoin="round"/>
<circle cx="522.4" cy="1144" r="14.399999999999999" fill="none" stroke="#2F2F2F" stroke-width="2"/>
<circle cx="551.968" cy="1144" r="14.399999999999999" fill="none" stroke="#2F2F2F" stroke-width="2"/>
<circle cx="522.4" cy="1170.4" r="14.399999999999999" fill="none" stroke="#2F2F2F" stroke-width="2"/>
<circle cx="551.968" cy="1170.4" r="14.399999999999999" fill="none" stroke="#2F2F2F" stroke-width="2"/>
<rect x="499.99999999999994" y="1020" width="89.60000000000001" height="80" rx="20" ry="20" fill="#F5F6F9" stroke="#2F2F2F" stroke-width="4" stroke-linecap="round" stroke-linejoin="round"/>
<text x="1040" y="850.4" text-anchor="middle" font-family="Inter, Arial, sans-serif" font-size="48" font-weight="700" fill="#1D1D1D" stroke="#FFFFFF" stroke-width="3" paint-order="stroke">Прихожая</text>
<text x="1040" y="896" text-anchor="middle" font-family="Inter, Arial, sans-serif" font-size="34" fill="#2F2F2F" stroke="#FFFFFF" stroke-width="2" paint-order="stroke">9.0 м²</text></svg>