<?xml version="1.0" encoding="UTF-8" standalone="no"?>
<svg xmlns="http://www.w3.org/2000/svg" width="720" height="447" viewBox="0 0 720 447">
<g fill-rule="evenodd" stroke="none">
<path d="M142 433 L142 446 L166 446 L166 433 Z M697 412 L697 415 L703 415 L703 412 Z M208 412 L208 418 L214 418 L217 415 L217 412 Z M157 396 L154 397 L154 406 L151 409 L150 415 L157 415 Z M535 394 L532 397 L532 413 L534 415 L543 416 L544 415 L544 411 L547 409 L547 400 L544 397 L544 394 Z M208 394 L208 397 L217 397 L217 394 Z M90 395 L90 397 L98 397 L97 394 L91 394 Z M580 316 L580 319 L589 319 L589 316 Z M526 316 L526 319 L541 319 L542 318 L542 316 Z M355 316 L355 319 L364 319 L364 316 Z M265 313 L262 313 L260 316 L256 316 L256 319 L265 319 Z M580 298 L580 301 L586 301 L586 298 Z M412 298 L412 319 L418 319 L424 313 L424 304 L418 298 Z M139 298 L139 301 L142 301 L142 298 Z M528 296 L528 298 L530 298 L530 296 Z M357 296 L357 298 L359 298 L359 296 Z M258 296 L258 298 L260 298 L260 296 Z M405 139 L406 142 L409 142 L409 139 Z M280 136 L280 139 L284 138 L284 136 Z M376 121 L376 127 L379 129 L379 133 L389 133 L389 131 L385 128 L385 121 Z M312 115 L313 118 L317 119 L316 115 Z M361 112 L361 118 L367 118 L370 115 L370 112 Z M424 109 L424 112 L429 112 L430 115 L433 115 L433 109 Z M400 106 L400 109 L404 109 L403 106 Z M271 106 L271 109 L280 109 L281 108 L281 106 Z M298 103 L298 106 L301 106 L301 103 Z M328 91 L328 94 L331 95 L331 104 L328 106 L328 112 L331 112 L333 109 L341 109 L341 107 L334 101 L334 97 L331 96 L331 91 Z M400 91 L403 91 L407 87 L407 85 L400 85 Z M364 85 L364 88 L367 89 L367 94 L370 94 L370 90 L373 88 L373 85 Z M355 73 L354 78 L355 79 L361 79 L361 76 L359 76 L358 73 Z M298 73 L295 73 L293 76 L288 76 L288 78 L292 82 L295 82 L295 78 L298 76 Z M427 70 L427 76 L430 76 L430 70 Z M397 61 L393 61 L391 58 L388 58 L388 65 L385 67 L385 73 L391 73 L393 70 L397 70 Z M355 49 L355 52 L358 52 L358 49 Z M0 0 L0 358 L13 358 L16 361 L16 385 L40 385 L40 361 L43 358 L58 358 L61 361 L61 430 L59 433 L43 433 L40 430 L40 403 L16 403 L16 430 L13 433 L0 433 L0 446 L121 446 L121 421 L133 409 L133 404 L136 401 L136 391 L139 388 L139 379 L142 376 L172 376 L177 381 L178 383 L178 415 L181 415 L184 418 L184 446 L719 446 L719 427 L717 427 L716 429 L712 430 L709 433 L679 433 L676 430 L676 379 L679 376 L691 376 L697 383 L697 394 L708 394 L711 397 L715 397 L717 400 L719 400 L719 0 L355 0 L364 9 L364 13 L367 15 L367 34 L379 34 L379 30 L382 28 L382 21 L391 13 L391 8 L392 7 L402 7 L403 8 L403 13 L406 14 L406 19 L409 21 L409 28 L412 30 L412 43 L415 43 L416 40 L428 40 L433 45 L433 52 L436 52 L439 49 L440 46 L445 46 L447 43 L474 43 L475 44 L475 50 L472 52 L472 59 L469 61 L469 65 L458 76 L454 76 L452 79 L444 79 L444 81 L448 83 L448 89 L445 91 L445 97 L451 97 L453 94 L461 94 L463 97 L470 97 L475 103 L479 103 L484 108 L484 113 L473 124 L466 124 L464 127 L447 127 L445 124 L441 124 L439 121 L436 121 L436 125 L429 131 L429 133 L431 133 L433 136 L440 136 L442 139 L446 139 L448 142 L451 143 L451 148 L454 151 L457 152 L457 165 L456 166 L451 166 L449 169 L432 169 L430 166 L423 166 L418 160 L415 160 L415 176 L413 178 L405 178 L403 175 L397 175 L391 169 L386 169 L385 168 L385 163 L379 158 L379 151 L376 151 L376 155 L365 166 L361 166 L360 168 L356 168 L349 161 L349 154 L346 152 L346 139 L343 139 L341 142 L318 142 L313 137 L313 130 L310 130 L306 134 L306 136 L308 136 L313 141 L313 149 L310 151 L310 155 L307 157 L307 162 L304 163 L302 166 L298 166 L296 169 L267 169 L265 167 L265 158 L268 157 L268 154 L265 154 L264 157 L243 157 L241 154 L237 154 L235 151 L230 151 L229 150 L229 141 L240 130 L244 130 L246 127 L253 127 L254 124 L261 124 L262 127 L266 127 L266 125 L263 124 L262 121 L240 121 L238 118 L234 118 L220 104 L220 99 L225 94 L229 94 L231 91 L241 91 L243 88 L252 88 L253 91 L259 91 L259 85 L256 83 L256 68 L257 67 L270 67 L271 70 L277 70 L277 64 L274 62 L274 39 L277 37 L277 33 L285 25 L290 25 L298 34 L301 35 L301 40 L304 42 L304 62 L301 64 L301 70 L308 70 L310 73 L314 73 L325 85 L328 85 L328 74 L332 73 L332 71 L331 70 L326 70 L325 69 L325 64 L319 59 L319 52 L316 50 L316 35 L317 34 L326 34 L328 37 L340 37 L340 34 L337 33 L337 12 L340 10 L340 2 L343 1 L343 0 Z M621 376 L667 376 L671 380 L670 391 L667 394 L655 394 L655 430 L652 433 L636 433 L634 431 L634 394 L622 394 L619 392 L619 378 Z M592 376 L610 376 L616 382 L616 394 L614 396 L609 396 L607 394 L595 394 L592 397 L592 412 L595 415 L613 415 L618 420 L619 427 L614 433 L585 433 L574 421 L574 418 L571 415 L571 397 L574 394 L574 391 L586 379 L589 379 Z M522 379 L526 379 L528 376 L547 376 L550 379 L553 379 L565 391 L565 397 L568 400 L568 410 L565 412 L565 418 L562 421 L562 425 L557 430 L552 430 L549 433 L529 433 L526 430 L523 430 L514 422 L514 418 L511 415 L511 397 L514 394 L514 391 L517 388 L517 384 Z M446 378 L450 376 L460 376 L469 384 L469 388 L472 391 L476 392 L482 387 L482 384 L484 383 L484 378 L486 376 L502 376 L505 379 L505 430 L502 433 L487 433 L484 430 L484 416 L485 412 L483 412 L483 416 L478 421 L472 421 L467 415 L465 415 L466 418 L466 431 L464 433 L448 433 L445 430 L445 380 Z M388 376 L400 376 L403 379 L403 397 L402 400 L404 400 L406 397 L406 393 L412 388 L412 384 L419 379 L420 377 L422 376 L433 376 L436 379 L436 430 L433 433 L421 433 L418 430 L418 412 L419 409 L417 409 L415 412 L415 416 L409 421 L409 425 L400 433 L388 433 L382 428 L382 384 L385 382 L385 378 Z M301 381 L307 376 L316 376 L325 385 L325 388 L328 391 L328 394 L330 397 L332 397 L331 394 L331 380 L332 378 L335 376 L346 376 L349 379 L349 397 L352 397 L352 392 L355 389 L355 385 L364 376 L377 376 L379 378 L379 392 L377 394 L370 394 L370 400 L367 403 L367 406 L373 412 L373 418 L376 421 L376 424 L378 426 L378 431 L376 433 L361 433 L358 430 L358 427 L355 424 L355 418 L352 415 L352 412 L349 412 L349 430 L346 433 L334 433 L331 430 L331 414 L328 415 L328 419 L325 421 L325 424 L322 427 L322 430 L319 433 L305 433 L302 431 L302 426 L304 424 L304 421 L307 418 L307 415 L310 412 L310 409 L313 406 L313 400 L310 397 L310 394 L303 394 L301 392 Z M247 376 L259 376 L265 381 L265 395 L268 394 L268 390 L277 382 L277 378 L279 376 L292 376 L298 382 L298 431 L296 433 L280 433 L277 430 L277 414 L278 413 L278 409 L276 409 L276 413 L270 419 L270 422 L265 427 L265 430 L262 433 L247 433 L244 430 L244 379 Z M193 376 L219 376 L222 379 L226 379 L229 382 L233 382 L235 384 L235 391 L237 392 L237 396 L235 397 L235 400 L232 402 L232 404 L234 405 L234 408 L238 412 L238 420 L229 430 L226 430 L223 433 L193 433 L190 430 L190 379 Z M85 376 L103 376 L106 379 L109 379 L114 384 L114 387 L118 391 L118 397 L121 400 L121 407 L119 411 L117 412 L91 412 L91 415 L94 415 L97 418 L101 418 L104 415 L112 415 L118 420 L118 427 L113 433 L85 433 L70 418 L70 394 L73 391 L73 388 Z M564 280 L593 280 L595 283 L599 283 L607 291 L607 305 L606 308 L607 309 L607 313 L610 315 L610 323 L607 325 L607 329 L602 334 L598 334 L596 337 L564 337 L562 335 L562 282 Z M448 282 L450 280 L464 280 L469 285 L469 319 L478 319 L478 282 L480 280 L494 280 L496 282 L496 319 L505 319 L505 313 L502 311 L502 306 L505 304 L505 294 L508 292 L508 288 L513 283 L517 283 L519 280 L539 280 L541 283 L545 283 L550 288 L550 292 L553 294 L553 301 L556 303 L556 314 L554 316 L550 316 L550 322 L553 324 L553 332 L551 334 L547 334 L545 337 L519 337 L508 325 L505 325 L505 350 L500 355 L489 355 L484 350 L484 337 L450 337 L448 335 Z M428 280 L442 294 L442 304 L445 306 L445 311 L442 313 L442 323 L428 337 L412 337 L412 359 L410 361 L393 361 L391 359 L391 285 L396 280 Z M341 283 L346 283 L348 280 L374 280 L382 288 L382 292 L385 294 L385 335 L383 337 L369 337 L368 335 L366 335 L365 337 L346 337 L337 329 L337 309 L345 301 L349 301 L349 298 L345 298 L340 293 L340 284 Z M288 280 L335 280 L337 282 L337 296 L335 298 L322 298 L322 335 L320 337 L303 337 L301 335 L301 298 L288 298 L286 296 L286 282 Z M240 283 L244 283 L246 280 L272 280 L274 283 L279 283 L280 284 L280 289 L283 291 L283 335 L281 337 L246 337 L244 334 L239 334 L238 333 L238 328 L235 326 L235 312 L238 310 L238 306 L243 301 L250 301 L251 300 L251 298 L243 298 L238 293 L238 285 Z M106 324 L109 322 L109 318 L112 316 L112 309 L115 307 L115 303 L118 301 L118 294 L121 292 L121 285 L124 283 L124 279 L127 277 L127 270 L130 268 L130 264 L132 262 L146 262 L151 267 L151 271 L154 273 L154 280 L157 282 L157 286 L160 288 L160 295 L163 297 L163 301 L166 303 L166 310 L169 312 L169 316 L172 318 L172 325 L175 325 L175 321 L177 319 L181 319 L181 315 L184 313 L184 309 L187 307 L187 297 L190 295 L190 282 L192 280 L227 280 L229 282 L229 335 L227 337 L210 337 L208 335 L208 304 L205 304 L205 314 L202 316 L202 323 L199 325 L199 329 L190 337 L177 337 L176 336 L173 337 L156 337 L154 335 L154 331 L151 329 L151 322 L148 319 L130 319 L130 326 L127 328 L127 335 L125 337 L108 337 L106 335 Z M366 169 L374 169 L376 172 L380 172 L382 174 L382 185 L379 187 L379 202 L382 204 L382 208 L385 210 L385 218 L377 226 L372 226 L364 218 L364 214 L361 212 L361 208 L358 206 L358 183 L361 181 L361 177 L364 175 L364 171 Z M332 145 L334 147 L334 151 L337 153 L337 157 L340 159 L340 166 L343 168 L343 178 L346 180 L346 191 L343 193 L343 203 L340 205 L340 209 L337 211 L337 215 L326 226 L321 226 L313 218 L313 210 L319 205 L319 201 L322 199 L322 195 L325 193 L325 181 L322 179 L322 169 L319 167 L319 163 L316 161 L316 153 L318 151 L322 151 L327 145 Z" fill="#000000" />
<path d="M679 378 L678 379 L679 382 L679 427 L678 430 L679 431 L682 430 L706 430 L709 431 L712 427 L715 427 L717 425 L719 425 L719 402 L717 402 L715 400 L712 400 L709 397 L697 397 L695 395 L695 384 L690 378 Z M695 411 L697 409 L703 409 L705 411 L705 416 L704 417 L696 417 L695 416 Z M625 379 L622 382 L621 391 L622 392 L634 391 L636 393 L636 430 L637 431 L640 430 L652 431 L653 430 L652 427 L652 394 L655 391 L667 392 L668 391 L668 384 L669 383 L668 379 L667 378 L628 378 Z M610 378 L607 379 L592 379 L589 382 L586 382 L577 391 L577 394 L573 397 L574 400 L574 412 L573 415 L577 418 L577 421 L584 428 L588 428 L589 430 L609 430 L613 431 L616 427 L616 421 L613 418 L595 418 L589 412 L589 408 L590 407 L589 397 L594 392 L613 392 L613 382 Z M529 378 L527 381 L523 381 L519 385 L519 389 L517 391 L517 394 L513 397 L514 400 L514 411 L513 414 L516 417 L516 421 L523 428 L527 428 L529 430 L550 430 L552 427 L554 427 L554 423 L555 422 L559 422 L559 420 L562 418 L562 412 L566 409 L565 400 L563 398 L563 391 L553 382 L550 382 L547 379 L532 379 Z M534 392 L545 392 L547 394 L547 397 L550 400 L549 414 L542 419 L534 418 L529 412 L529 397 Z M448 379 L448 430 L461 430 L462 428 L464 428 L464 416 L465 415 L469 415 L471 418 L479 418 L480 416 L485 416 L486 417 L486 429 L487 430 L499 430 L500 431 L503 430 L502 427 L502 379 L497 379 L496 378 L490 379 L484 385 L484 388 L481 391 L481 394 L477 399 L473 399 L470 396 L470 392 L467 389 L467 385 L460 378 Z M388 378 L388 382 L387 383 L387 429 L388 430 L400 430 L404 427 L404 422 L413 415 L413 411 L416 408 L420 408 L421 409 L421 430 L433 430 L433 382 L434 379 L433 378 L422 378 L417 382 L417 387 L408 394 L408 398 L405 401 L401 401 L400 400 L400 382 L401 379 L400 378 Z M303 382 L303 389 L305 389 L306 391 L310 391 L313 394 L313 397 L316 400 L316 406 L313 409 L313 412 L310 415 L310 418 L307 421 L307 424 L303 427 L304 430 L319 430 L319 427 L322 424 L322 421 L326 418 L326 414 L329 412 L333 412 L334 413 L334 430 L346 430 L346 412 L348 410 L353 410 L355 412 L355 415 L357 417 L357 424 L361 427 L361 431 L364 430 L376 430 L376 427 L373 424 L373 421 L370 418 L370 412 L365 407 L365 402 L367 400 L367 394 L369 392 L376 392 L377 391 L377 379 L376 378 L364 379 L358 385 L358 388 L355 391 L355 397 L353 399 L348 399 L346 397 L346 379 L345 378 L336 378 L334 379 L334 397 L333 398 L329 398 L325 394 L325 391 L322 388 L322 385 L316 379 L307 379 Z M247 378 L246 379 L247 382 L247 427 L246 430 L247 431 L250 430 L262 430 L262 427 L268 421 L268 418 L274 413 L274 409 L275 408 L279 408 L280 409 L280 414 L279 415 L280 418 L280 430 L292 430 L295 431 L296 430 L296 383 L291 378 L280 378 L279 379 L279 383 L270 391 L270 395 L268 397 L264 397 L263 396 L263 385 L260 384 L259 378 Z M193 378 L192 379 L193 382 L193 430 L223 430 L226 427 L229 427 L235 421 L235 412 L232 409 L231 401 L233 396 L232 388 L226 382 L223 382 L220 379 Z M208 409 L217 409 L219 411 L219 416 L214 421 L208 421 L205 418 L205 412 Z M206 393 L208 391 L218 392 L219 393 L219 398 L217 400 L208 400 L206 398 Z M142 379 L142 388 L139 391 L139 400 L136 403 L136 409 L124 421 L124 446 L139 446 L139 433 L142 430 L166 430 L169 433 L169 446 L181 446 L181 421 L182 418 L181 417 L177 417 L175 415 L175 382 L172 378 L148 378 L147 379 Z M159 394 L160 395 L160 415 L156 418 L148 418 L147 417 L148 409 L152 405 L151 397 L155 394 Z M103 378 L100 379 L85 379 L76 388 L76 391 L73 394 L73 418 L85 430 L108 430 L112 431 L115 427 L116 421 L112 417 L103 418 L102 420 L96 420 L89 416 L89 411 L91 409 L118 409 L119 400 L115 397 L115 391 L112 388 L112 385 L109 382 L106 382 Z M87 395 L91 391 L97 391 L101 395 L101 399 L100 400 L88 400 L87 399 Z M0 361 L0 430 L10 430 L11 431 L14 430 L13 427 L13 403 L16 400 L40 400 L43 403 L43 427 L42 430 L55 430 L58 431 L59 430 L58 427 L58 364 L59 361 L58 360 L55 361 L43 361 L43 385 L38 388 L18 388 L15 387 L13 385 L13 364 L14 361 L13 360 L10 361 Z" fill="#424142" />
<path d="M565 283 L565 334 L594 334 L597 331 L601 331 L604 328 L604 324 L607 322 L607 315 L604 314 L604 311 L602 309 L602 305 L604 304 L604 292 L598 286 L594 286 L592 283 Z M577 315 L579 313 L590 313 L592 315 L592 320 L590 322 L579 322 L577 320 Z M577 297 L579 295 L587 295 L589 297 L589 302 L587 304 L579 304 L577 302 Z M511 289 L511 293 L508 295 L508 305 L504 308 L504 310 L508 312 L508 322 L520 334 L544 334 L546 331 L550 331 L550 325 L547 323 L547 319 L544 319 L542 322 L525 322 L523 320 L523 315 L525 313 L553 313 L553 304 L550 302 L550 295 L547 293 L547 289 L544 286 L540 286 L538 283 L520 283 L518 286 L515 286 Z M524 297 L527 293 L531 293 L534 297 L534 301 L533 302 L525 302 L524 301 Z M451 283 L451 334 L485 334 L487 336 L487 349 L490 352 L499 352 L502 349 L502 322 L495 322 L493 320 L493 283 L481 283 L481 320 L479 322 L468 322 L465 316 L465 289 L466 285 L463 283 Z M427 283 L397 283 L394 286 L394 358 L409 358 L409 336 L411 334 L427 334 L439 322 L439 312 L443 309 L443 307 L439 305 L439 295 Z M411 295 L419 295 L427 303 L427 314 L419 322 L411 322 L409 320 L409 297 Z M343 286 L343 292 L346 295 L355 295 L356 294 L365 295 L366 296 L366 300 L365 301 L351 301 L350 304 L346 304 L340 310 L340 328 L347 334 L364 334 L365 332 L369 332 L370 334 L382 334 L382 295 L379 293 L379 289 L373 283 L349 283 L347 286 Z M367 313 L367 320 L365 322 L354 322 L352 320 L352 315 L354 313 L358 313 L359 314 L361 314 L362 312 L366 312 Z M289 283 L289 295 L302 295 L304 297 L304 334 L319 334 L319 297 L321 295 L333 295 L334 294 L334 283 Z M241 286 L241 291 L244 295 L261 294 L264 296 L264 300 L263 301 L253 301 L251 304 L244 304 L241 307 L241 311 L238 313 L238 325 L241 327 L241 331 L245 331 L247 334 L280 334 L280 292 L277 290 L277 286 L273 286 L271 283 L247 283 L245 286 Z M268 312 L268 320 L266 322 L255 322 L253 320 L253 315 L255 313 L258 313 L261 310 L266 310 Z M193 283 L193 296 L190 298 L190 308 L187 310 L187 314 L184 315 L184 320 L182 322 L178 322 L178 334 L189 334 L196 328 L196 324 L199 322 L199 315 L202 313 L202 303 L205 301 L205 297 L206 296 L210 296 L211 297 L211 334 L226 334 L226 283 Z M133 265 L133 269 L130 271 L130 278 L127 280 L127 284 L124 286 L124 293 L121 295 L121 302 L118 304 L118 308 L115 310 L115 317 L112 319 L112 323 L109 325 L109 334 L124 334 L124 327 L127 324 L127 318 L129 316 L149 316 L154 321 L154 328 L157 330 L157 334 L172 334 L172 328 L169 326 L169 319 L166 317 L166 313 L163 311 L163 304 L160 302 L160 298 L157 296 L157 289 L154 287 L154 283 L151 281 L151 274 L148 272 L148 268 L145 265 Z M137 293 L141 293 L145 297 L145 302 L143 304 L135 304 L134 303 L134 299 L136 298 L136 294 Z M367 172 L367 176 L364 178 L364 182 L361 185 L361 205 L364 207 L364 211 L367 213 L367 216 L373 223 L376 223 L382 217 L382 211 L379 209 L379 205 L376 203 L376 186 L379 183 L379 175 L375 175 L373 172 Z M331 148 L328 148 L323 154 L319 154 L319 160 L322 162 L322 166 L325 168 L325 178 L328 180 L328 194 L325 196 L325 200 L322 202 L322 206 L316 211 L316 217 L322 223 L325 223 L334 214 L334 210 L337 208 L337 204 L340 202 L340 192 L343 189 L343 181 L340 179 L340 169 L337 167 L337 160 L334 158 L334 154 L331 152 Z M331 76 L331 88 L334 90 L334 94 L337 96 L337 100 L343 106 L347 106 L348 109 L366 109 L367 108 L367 97 L364 95 L364 91 L361 89 L361 84 L359 84 L357 82 L354 82 L352 79 L345 79 L343 76 Z M301 73 L301 77 L298 79 L297 94 L299 94 L301 96 L301 100 L304 102 L304 106 L306 107 L306 111 L305 112 L300 112 L298 109 L283 109 L281 112 L274 111 L266 120 L266 122 L271 127 L273 127 L275 130 L278 130 L280 133 L286 133 L287 134 L287 138 L281 145 L277 145 L277 149 L271 154 L271 158 L268 160 L268 166 L295 166 L297 163 L301 163 L304 161 L304 156 L307 154 L307 150 L310 148 L310 142 L306 139 L293 139 L292 138 L292 134 L293 133 L304 133 L311 125 L313 125 L313 121 L309 117 L309 115 L306 114 L306 110 L307 109 L311 109 L312 112 L317 112 L318 115 L320 116 L319 125 L316 126 L316 136 L319 139 L340 139 L342 136 L346 136 L347 134 L351 134 L352 135 L352 140 L349 142 L349 151 L352 153 L352 160 L354 161 L357 166 L359 166 L361 163 L364 163 L373 154 L373 150 L376 148 L376 130 L373 128 L373 124 L370 122 L370 120 L359 122 L358 121 L358 115 L348 115 L347 112 L335 112 L332 115 L326 115 L325 114 L325 105 L328 103 L328 97 L325 95 L325 88 L313 76 L309 76 L307 73 Z M370 37 L364 43 L364 47 L361 49 L361 53 L358 55 L357 67 L359 67 L361 69 L361 73 L364 75 L364 81 L375 82 L376 83 L376 89 L373 91 L373 112 L376 114 L376 118 L382 118 L384 115 L388 115 L389 116 L388 127 L393 131 L393 135 L392 136 L382 136 L382 157 L388 162 L388 166 L392 166 L398 172 L404 172 L406 175 L412 175 L412 157 L409 155 L409 148 L401 141 L401 137 L402 136 L415 136 L416 133 L421 133 L423 130 L427 130 L433 124 L433 118 L429 118 L427 115 L422 115 L421 112 L399 112 L398 115 L394 115 L393 114 L393 110 L396 109 L397 106 L397 79 L394 78 L394 75 L388 76 L386 79 L382 79 L381 78 L382 66 L385 64 L385 55 L382 53 L382 49 L379 48 L379 43 L376 41 L376 37 Z M394 134 L395 133 L399 133 L400 134 L400 138 L399 139 L395 139 L394 138 Z" fill="#cc215e" />
<path d="M384 385 L384 427 L386 427 L386 385 Z" fill="#936863" />
<path d="M411 143 L411 145 L415 147 L415 151 L418 153 L418 157 L424 164 L431 163 L433 166 L448 166 L450 163 L454 163 L455 154 L448 149 L448 144 L445 141 L440 141 L439 139 L433 139 L430 135 L427 135 L424 139 L415 139 Z M277 136 L274 133 L270 133 L268 130 L261 130 L258 126 L256 126 L253 130 L247 130 L245 133 L241 133 L232 142 L232 148 L236 148 L238 151 L242 151 L244 154 L262 154 L264 151 L268 151 L274 145 L274 141 L277 139 Z M472 46 L448 46 L446 48 L442 48 L436 54 L436 59 L433 60 L433 73 L434 76 L451 76 L453 73 L457 73 L466 64 L466 60 L469 58 L469 51 L472 49 Z M289 28 L286 28 L280 34 L280 38 L277 40 L277 61 L280 63 L280 71 L277 73 L271 73 L269 70 L259 70 L259 82 L262 84 L261 92 L260 93 L252 93 L251 91 L244 91 L242 94 L232 94 L230 97 L226 97 L223 100 L223 103 L235 115 L239 115 L241 118 L256 118 L259 119 L264 112 L268 112 L268 103 L269 102 L273 102 L274 103 L295 103 L296 91 L294 91 L292 89 L292 85 L285 78 L285 74 L286 73 L292 73 L298 67 L298 63 L301 61 L301 43 L298 41 L298 37 Z M394 10 L394 14 L385 22 L385 29 L382 31 L382 40 L385 42 L385 49 L393 57 L397 57 L398 53 L402 53 L403 54 L403 59 L400 60 L400 79 L403 82 L409 82 L410 83 L410 87 L403 94 L403 103 L406 106 L416 106 L418 111 L421 111 L424 106 L435 105 L436 106 L436 115 L442 121 L446 121 L448 124 L463 124 L465 121 L472 122 L481 112 L481 109 L478 106 L474 106 L469 100 L462 100 L460 97 L454 97 L452 100 L442 100 L441 99 L441 95 L442 94 L442 90 L445 88 L445 85 L442 82 L432 82 L431 79 L423 79 L422 78 L422 74 L424 73 L424 69 L427 67 L427 60 L430 59 L430 46 L427 43 L418 42 L416 46 L407 47 L406 46 L406 42 L409 40 L409 31 L406 29 L406 22 L403 20 L403 16 L400 14 L400 10 Z M352 0 L345 0 L345 2 L342 4 L343 11 L340 13 L340 31 L343 33 L344 42 L343 43 L339 43 L337 40 L327 40 L325 37 L319 37 L319 49 L322 51 L322 58 L328 63 L328 67 L332 67 L334 70 L338 70 L340 75 L342 75 L344 73 L352 73 L355 70 L356 64 L354 64 L352 62 L351 47 L355 46 L361 40 L361 36 L364 34 L364 16 L361 14 L361 10 L352 2 Z" fill="#e2948c" />
</g></svg>