<?xml version="1.0" encoding="UTF-8"?>
<svg id="_Слой_8" data-name="Слой 8" xmlns="http://www.w3.org/2000/svg" viewBox="0 0 716.23 807.86">
  <defs>
    <style>
      .cls-1 {
        fill: #fff;
      }
    </style>
  </defs>
  <path class="cls-1" d="M394.37,356.03v4.32l-160.57,133.89,1.96-5.63c3.31-9.42,6.47-18.94,9.51-28.48l108.46-107.98,40.64,3.88Z"/>
  <polygon class="cls-1" points="394.37 356.05 399.53 348.9 406.61 15.79 394.13 0 355.02 48.72 348.6 394.3 394.37 356.05"/>
  <path class="cls-1" d="M229.6,488.6L.74,686.76c-1.17,1.02-.9,2.91.51,3.55h0c29.69,13.58,76.75,27.41,109.11,31.78h0s76.7-103.15,119.25-233.48"/>
  <path class="cls-1" d="M527.08,408.7l-129.85,208.07c-1.91,3.05-2.92,6.58-2.91,10.18l.05,161.69c0,10.61,8.61,19.21,19.22,19.21h283.32c16.35,0,25.24-19.12,14.69-31.6-43.09-50.99-124.45-166.58-184.51-367.55"/>
  <path class="cls-1" d="M497.09,271.87l29.36,133.97c.23,1.05,1.62,1.3,2.19.38l186.19-295.47c5.2-8.26-5.25-17.4-12.74-11.14l-204.61,171.08c-.34.29-.5.74-.4,1.18Z"/>
  <path class="cls-1" d="M238.59,486.18l155.78-130.12-.05,261.47c0,2.56-.75,5.07-2.15,7.21l-115.73,177.14c-2.44,3.73-6.59,5.98-11.04,5.98H73.91c-11.58,0-17.55-13.85-9.58-22.26,37.71-39.8,114.21-134.27,170.27-293.66.79-2.24,2.16-4.24,3.99-5.76Z"/>
  <polygon class="cls-1" points="496.93 271.15 475.24 102.6 394.13 0 385.63 363.35 496.93 271.15"/>
  <path class="cls-1" d="M245.28,460.12c54.5-171.4,66.48-357.52,66.48-357.52L394.12,0l.25,356.02v.03l-158.61,132.55"/>
</svg>