<?xml version="1.0" encoding="UTF-8"?>
<svg id="_Слой_8" data-name="Слой 8" xmlns="http://www.w3.org/2000/svg" viewBox="0 0 748.37 807.86">
  <defs>
    <style>
      .cls-1 {
        fill: #fff;
      }
    </style>
  </defs>
  <path class="cls-1" d="M398.89,356.03v4.32l-160.57,133.89,1.96-5.63c3.31-9.42,6.47-18.94,9.51-28.48l108.46-107.98,40.64,3.88Z"/>
  <polygon class="cls-1" points="398.89 356.05 404.05 348.9 411.13 15.79 398.65 0 359.54 48.72 353.12 394.3 398.89 356.05"/>
  <path class="cls-1" d="M231.37,488.6L0,688.92l3.02,1.38c29.69,13.58,76.75,27.41,109.11,31.78h0s76.7-103.15,119.25-233.48"/>
  <path class="cls-1" d="M531.6,408.7l-132.77,212.75.05,186.4h346.86s-128.65-113.07-214.15-399.15"/>
  <polygon class="cls-1" points="501.45 271.15 531.6 408.7 748.37 64.7 501.45 271.15"/>
  <path class="cls-1" d="M240.33,488.51l158.57-132.45-.05,265.4-121.78,186.4H45.91s117.2-97.37,194.42-319.36Z"/>
  <polygon class="cls-1" points="501.45 271.15 479.77 102.6 398.65 0 390.15 363.35 501.45 271.15"/>
  <path class="cls-1" d="M249.8,460.12c54.5-171.4,66.48-357.52,66.48-357.52L398.65,0l.25,356.02v.03l-158.61,132.55"/>
</svg>